<?xml version="1.0" encoding="UTF-8"?><svg id="Layer_2" xmlns="http://www.w3.org/2000/svg" viewBox="0 0 209.85 220.46"><defs><style>.cls-1{fill:none;}.cls-1,.cls-2{stroke-width:0px;}.cls-2{fill:#122032;}</style></defs><g id="Layer_1-2"><path class="cls-1" d="M12.9,83.57c-.43-.12-.69-.59-.58-1.04.1-.38.42-.63.78-.63.07,0,.14,0,.21.03l9.33,2.6c.43.12.69.59.58,1.04-.11.45-.56.72-.99.6l-9.33-2.6ZM11.31,98.43l-10.54-1.14c-.47-.05-.81-.49-.77-.99.05-.46.42-.81.85-.81.03,0,.06,0,.09,0l10.54,1.14c.47.05.81.49.77.99-.05.49-.47.85-.94.8ZM22.36,98.44l-9.38-1.22c-.44-.06-.75-.47-.69-.93.05-.42.39-.73.79-.73.03,0,.07,0,.1,0l9.38,1.22c.44.06.75.47.69.93-.05.46-.45.78-.89.72ZM74.36,27.43c.08-.03.17-.04.25-.04.31,0,.61.21.71.53l2.74,8.26c.14.41-.07.86-.47,1.01-.39.14-.82-.07-.96-.49l-2.74-8.26c-.14-.41.07-.86.47-1.01ZM74.24,41.15c.09-.04.19-.06.28-.06.27,0,.53.16.64.44l2.91,6.93c.16.37,0,.8-.36.97-.35.16-.77,0-.92-.38l-2.91-6.93c-.16-.37,0-.8.36-.97ZM74.12,54.88c.1-.06.21-.09.32-.09.22,0,.44.12.56.34l3.08,5.6c.18.32.07.74-.24.92-.31.19-.7.08-.88-.25l-3.08-5.6c-.18-.32-.07-.74.24-.92ZM73.99,68.62c.11-.09.24-.13.37-.13.17,0,.35.08.46.23l3.24,4.26c.2.27.16.66-.09.87-.26.21-.63.17-.83-.1l-3.24-4.26c-.2-.27-.16-.66.09-.87ZM73.86,82.39c.11-.14.26-.2.41-.2.12,0,.24.04.34.13l3.41,2.93c.23.2.26.55.07.79-.19.24-.52.27-.75.08l-3.41-2.93c-.23-.2-.26-.55-.07-.79ZM73.75,96.2c.08-.19.25-.3.44-.3.06,0,.13.01.19.04l3.58,1.6c.24.11.36.4.25.66-.1.25-.39.37-.63.26l-3.58-1.6c-.24-.11-.36-.4-.25-.66ZM61.86,41.17c.12-.08.26-.12.39-.12.24,0,.48.13.62.36l4.17,6.89c.22.36.11.83-.23,1.06-.34.23-.79.12-1.01-.24l-4.17-6.89c-.22-.36-.11-.83.23-1.06ZM61.75,54.91c.13-.11.28-.16.43-.16.2,0,.4.09.53.26l4.31,5.55c.24.31.19.76-.1,1.01-.29.25-.72.2-.96-.1l-4.31-5.55c-.24-.31-.19-.76.1-1.01ZM61.64,68.66c.13-.15.3-.22.47-.22.15,0,.3.06.43.17l4.45,4.21c.26.25.28.67.05.94-.24.27-.64.3-.9.05l-4.45-4.21c-.26-.25-.28-.67-.05-.94ZM61.54,82.43c.11-.19.31-.3.51-.3.1,0,.21.03.3.09l4.59,2.87c.28.17.37.55.21.85-.17.29-.53.39-.81.21l-4.59-2.87c-.28-.17-.37-.55-.21-.85ZM61.45,96.23c.07-.24.29-.4.52-.4.05,0,.11,0,.16.02l4.74,1.52c.29.09.45.41.36.71-.09.3-.39.47-.68.38l-4.74-1.52c-.29-.09-.45-.41-.36-.71ZM49.4,54.94c.14-.16.33-.24.53-.24.18,0,.36.07.5.21l5.54,5.5c.29.29.3.77.03,1.07-.28.3-.73.32-1.02.03l-5.54-5.5c-.29-.29-.3-.77-.03-1.07ZM49.31,68.7c.13-.2.35-.31.56-.31.14,0,.27.04.39.13l5.66,4.15c.31.23.39.67.17,1-.22.32-.64.4-.95.18l-5.66-4.15c-.31-.23-.39-.67-.17-1ZM49.22,82.47c.11-.25.34-.39.59-.39.09,0,.18.02.27.06l5.78,2.8c.32.16.46.56.31.9-.15.34-.53.49-.86.33l-5.78-2.8c-.32-.16-.46-.56-.31-.9ZM49.16,96.25c.07-.29.31-.49.59-.49.05,0,.09,0,.14.02l5.9,1.45c.33.08.53.42.45.76-.08.34-.4.55-.73.47l-5.9-1.45c-.33-.08-.53-.42-.45-.76ZM37.06,54.98c.15-.2.38-.31.61-.31.16,0,.33.05.46.17l6.78,5.45c.33.27.4.77.14,1.12-.26.35-.74.42-1.07.15l-6.78-5.45c-.33-.27-.4-.77-.14-1.12ZM36.98,68.73c.13-.25.38-.39.64-.39.12,0,.25.03.36.1l6.87,4.09c.35.21.47.68.27,1.05-.2.37-.65.5-1,.29l-6.87-4.09c-.35-.21-.47-.68-.27-1.05ZM36.92,82.49c.11-.29.37-.48.66-.48.08,0,.16.02.25.05l6.96,2.73c.36.14.55.56.41.94-.14.38-.54.57-.9.43l-6.96-2.73c-.36-.14-.55-.56-.41-.94ZM37.53,95.69s.08,0,.12.01l7.06,1.37c.36.07.6.44.54.82-.07.38-.42.63-.78.56l-7.06-1.37c-.36-.07-.6-.44-.54-.82.06-.34.34-.57.66-.57ZM24.67,68.76c.13-.29.41-.47.7-.47.11,0,.23.03.33.08l8.08,4.04c.39.19.55.68.37,1.09-.19.41-.65.58-1.04.39l-8.08-4.04c-.39-.19-.55-.68-.37-1.09ZM24.62,82.51c.1-.34.4-.56.72-.56.07,0,.15.01.23.04l8.15,2.67c.4.13.62.57.5.99-.12.42-.55.65-.95.52l-8.15-2.67c-.4-.13-.62-.57-.5-.99ZM25.3,95.63s.07,0,.11,0l8.22,1.3c.4.06.67.45.61.87-.06.42-.43.71-.83.64l-8.22-1.3c-.4-.06-.67-.45-.61-.87.05-.38.37-.65.72-.65ZM34,209.18l-7.72,10.89c-.18.25-.45.38-.72.38-.19,0-.37-.06-.53-.19-.4-.31-.48-.9-.18-1.32l7.72-10.89c.3-.42.86-.5,1.26-.19.4.31.48.9.18,1.32ZM33.97,196.94l-7.8,9.52c-.17.21-.42.32-.66.32-.2,0-.4-.07-.57-.22-.37-.33-.41-.91-.09-1.29l7.8-9.52c.31-.38.87-.43,1.23-.1.37.33.41.91.09,1.29ZM33.94,184.71l-7.87,8.15c-.17.17-.38.26-.6.26s-.44-.09-.6-.26c-.33-.35-.33-.91,0-1.26l7.87-8.15c.33-.35.87-.34,1.2,0,.33.35.33.91,0,1.26ZM33.9,172.47l-7.94,6.78c-.15.13-.34.19-.52.19-.24,0-.48-.11-.64-.32-.29-.37-.24-.92.12-1.22l7.94-6.78c.35-.3.87-.25,1.16.12.29.37.24.92-.12,1.22ZM33.85,160.24l-8.01,5.41c-.13.09-.29.13-.43.13-.26,0-.52-.14-.68-.39-.24-.39-.13-.91.24-1.16l8.01-5.41c.37-.25.87-.14,1.11.25.24.39.13.91-.24,1.16ZM33.79,147.99l-8.08,4.04c-.11.05-.22.08-.33.08-.29,0-.57-.17-.7-.47-.19-.41-.02-.89.37-1.09l8.08-4.04c.39-.19.85-.02,1.04.39.19.41.02.89-.37,1.09ZM33.71,135.74l-8.15,2.67c-.07.02-.15.04-.23.04-.32,0-.62-.22-.72-.56-.12-.42.1-.86.5-.99l8.15-2.67c.4-.13.82.1.95.52.12.42-.1.86-.5.99ZM33.63,123.47l-8.22,1.3s-.07,0-.11,0c-.36,0-.67-.27-.72-.65-.06-.42.22-.81.61-.87l8.22-1.3c.4-.06.77.23.83.64.06.42-.22.81-.61.87ZM33.56,111.18s0,0,0,0l-8.29-.08c-.39,0-.71-.34-.7-.75,0-.41.32-.74.71-.74,0,0,0,0,0,0l8.29.08c.39,0,.71.34.7.75,0,.41-.32.74-.71.74ZM45.01,209.1l-6.4,10.9c-.17.29-.46.44-.76.44-.16,0-.32-.04-.47-.14-.42-.27-.55-.84-.29-1.28l6.4-10.9c.26-.44.81-.58,1.22-.31.42.27.55.84.29,1.28ZM45,196.85l-6.49,9.54c-.17.25-.43.38-.7.38-.17,0-.35-.05-.5-.17-.39-.29-.48-.85-.2-1.25l6.49-9.54c.28-.4.81-.5,1.2-.21.39.29.48.85.2,1.25ZM44.98,184.6l-6.59,8.18c-.16.2-.4.31-.63.31-.19,0-.38-.07-.53-.2-.35-.31-.39-.85-.1-1.22l6.59-8.18c.29-.36.82-.41,1.16-.1.35.31.39.85.1,1.22ZM44.95,172.36l-6.68,6.82c-.15.16-.35.24-.55.24s-.41-.08-.57-.25c-.31-.33-.3-.86.01-1.18l6.68-6.82c.31-.32.82-.31,1.12.02.31.33.3.86-.01,1.18ZM44.91,160.12l-6.78,5.45c-.14.11-.3.17-.46.17-.23,0-.46-.11-.61-.31-.26-.35-.19-.85.14-1.12l6.78-5.45c.33-.27.81-.2,1.07.15.26.35.19.85-.14,1.12ZM44.85,147.87l-6.87,4.09c-.11.07-.24.1-.36.1-.25,0-.5-.14-.64-.39-.2-.37-.08-.84.27-1.05l6.87-4.09c.35-.21.8-.08,1,.29.2.37.08.84-.27,1.05ZM44.78,135.6l-6.96,2.73c-.08.03-.16.05-.25.05-.28,0-.55-.18-.66-.48-.14-.38.05-.8.41-.94l6.96-2.73c.36-.14.77.05.9.43.14.38-.05.8-.41.94ZM44.71,123.32l-7.06,1.37s-.08.01-.12.01c-.32,0-.6-.24-.66-.57-.07-.38.17-.75.54-.82l7.06-1.37c.36-.07.71.18.78.56.07.38-.17.75-.54.82ZM44.63,111.02h-7.15s0,.01,0,.01c-.35,0-.64-.3-.64-.67,0-.37.28-.67.64-.67h7.15s0-.01,0-.01c.35,0,.64.3.64.67,0,.37-.28.67-.64.67ZM56.02,209.01l-5.07,10.91c-.15.33-.47.52-.79.52-.13,0-.26-.03-.39-.09-.44-.22-.62-.78-.41-1.23l5.07-10.91c.21-.46.74-.65,1.18-.43.44.22.62.78.41,1.23ZM56.02,196.75l-5.19,9.56c-.16.29-.44.45-.73.45-.14,0-.28-.04-.42-.12-.4-.24-.55-.78-.32-1.2l5.19-9.56c.23-.42.74-.57,1.15-.33.4.24.55.78.32,1.2ZM56.02,184.49l-5.31,8.2c-.16.24-.41.37-.67.37-.15,0-.31-.05-.45-.14-.37-.26-.46-.78-.21-1.17l5.31-8.2c.25-.38.75-.48,1.12-.22.37.26.46.78.21,1.17ZM56,172.24l-5.42,6.85c-.15.19-.37.29-.59.29-.17,0-.34-.06-.49-.18-.32-.28-.37-.79-.1-1.13l5.42-6.85c.27-.34.75-.39,1.08-.11.32.28.37.79.1,1.13ZM55.97,159.98l-5.54,5.5c-.14.14-.32.21-.5.21-.19,0-.38-.08-.53-.24-.28-.3-.26-.78.03-1.07l5.54-5.5c.29-.29.75-.28,1.02.03.28.3.26.78-.03,1.07ZM55.92,147.73l-5.66,4.15c-.12.09-.26.13-.39.13-.22,0-.43-.11-.56-.31-.22-.32-.14-.77.17-1l5.66-4.15c.31-.23.74-.15.95.18.22.32.14.77-.17,1ZM55.86,135.46l-5.78,2.8c-.09.04-.18.06-.27.06-.24,0-.48-.15-.59-.39-.15-.34,0-.74.31-.9l5.78-2.8c.32-.16.71,0,.86.33.15.34,0,.74-.31.9ZM55.78,123.18l-5.9,1.45s-.09.02-.14.02c-.27,0-.52-.2-.59-.49-.08-.34.13-.68.45-.76l5.9-1.45c.32-.08.65.13.73.47.08.34-.13.68-.45.76ZM55.71,110.86l-6.02.1s0,0,0,0c-.31,0-.56-.26-.57-.58,0-.33.24-.6.56-.6l6.02-.1s0,0,0,0c.31,0,.56.26.57.58,0,.33-.24.6-.56.6ZM67.03,208.9l-3.74,10.92c-.13.37-.46.61-.82.61-.1,0-.2-.02-.3-.05-.45-.17-.69-.7-.53-1.17l3.74-10.92c.16-.48.66-.72,1.12-.55.45.17.69.7.53,1.17ZM67.04,196.63l-3.88,9.57c-.13.33-.44.53-.76.53-.11,0-.22-.02-.32-.07-.42-.19-.62-.7-.44-1.14l3.88-9.58c.18-.44.66-.64,1.08-.46.42.19.62.7.44,1.14ZM67.05,184.36l-4.02,8.23c-.14.28-.41.44-.69.44-.12,0-.24-.03-.35-.09-.38-.21-.53-.7-.34-1.1l4.02-8.23c.2-.4.67-.56,1.05-.35.38.21.53.7.34,1.1ZM67.04,172.1l-4.17,6.89c-.14.23-.38.36-.62.36-.13,0-.27-.04-.39-.12-.34-.23-.44-.7-.23-1.06l4.17-6.89c.22-.36.67-.46,1.01-.24.34.23.44.7.23,1.06ZM67.03,159.84l-4.31,5.55c-.14.17-.33.26-.53.26-.15,0-.3-.05-.43-.16-.29-.25-.34-.7-.1-1.01l4.31-5.55c.24-.31.67-.35.96-.1.29.25.34.7.1,1.01ZM66.99,147.58l-4.45,4.21c-.12.12-.27.17-.43.17-.17,0-.35-.07-.47-.22-.24-.27-.21-.7.05-.94l4.45-4.21c.26-.25.66-.23.9.05.24.27.21.7-.05.94ZM66.94,135.32l-4.59,2.87c-.09.06-.2.09-.3.09-.2,0-.4-.11-.51-.3-.17-.29-.07-.67.21-.85l4.59-2.87c.28-.17.64-.08.81.21.17.29.07.67-.21.85ZM66.87,123.03l-4.74,1.52c-.05.02-.11.03-.16.03-.23,0-.45-.16-.52-.4-.09-.3.07-.62.36-.71l4.74-1.52c.29-.09.59.08.68.38.09.3-.07.62-.36.71ZM66.8,110.7l-4.88.18s-.01,0-.02,0c-.27,0-.48-.22-.49-.5,0-.29.2-.53.48-.54l4.88-.18c.27-.02.5.21.51.5,0,.29-.2.53-.48.54ZM78.03,208.79l-2.41,10.93c-.09.42-.45.7-.84.7-.06,0-.13,0-.2-.02-.47-.11-.76-.6-.65-1.09l2.41-10.93c.11-.49.57-.79,1.04-.68.47.11.76.6.65,1.09ZM78.05,196.5l-2.58,9.59c-.1.37-.43.62-.78.62-.07,0-.15-.01-.22-.03-.43-.13-.68-.6-.56-1.05l2.58-9.59c.12-.45.57-.71,1-.59.43.13.68.6.56,1.05ZM78.07,184.22l-2.74,8.26c-.11.33-.4.53-.71.53-.08,0-.17-.01-.25-.04-.39-.14-.6-.59-.47-1.01l2.74-8.26c.14-.41.57-.63.96-.49.39.14.6.59.47,1.01ZM78.08,171.95l-2.91,6.93c-.12.27-.37.44-.64.44-.09,0-.19-.02-.28-.06-.35-.16-.51-.6-.36-.97l2.91-6.93c.16-.37.57-.54.92-.38.35.16.51.6.36.97ZM78.08,159.68l-3.08,5.6c-.12.22-.34.34-.56.34-.11,0-.22-.03-.32-.09-.31-.19-.41-.6-.24-.92l3.08-5.6c.18-.32.57-.43.88-.25.31.19.41.6.24.92ZM78.06,147.41l-3.24,4.26c-.12.15-.29.23-.46.23-.13,0-.26-.04-.37-.13-.25-.21-.3-.6-.09-.87l3.24-4.26c.2-.27.57-.31.83-.1.25.21.3.6.09.87ZM78.03,135.15l-3.41,2.93c-.1.09-.22.13-.34.13-.15,0-.31-.07-.41-.2-.19-.24-.15-.59.07-.79l3.41-2.93c.23-.2.56-.16.75.08.19.24.15.59-.07.79ZM77.96,122.87l-3.58,1.6c-.06.03-.13.04-.19.04-.19,0-.36-.11-.44-.3-.1-.26,0-.55.25-.66l3.58-1.6c.24-.11.52,0,.63.26.1.25,0,.55-.25.66ZM77.88,110.54l-3.74.27s-.02,0-.03,0c-.22,0-.41-.18-.42-.41-.02-.24.16-.46.39-.47l3.74-.27c.23-.01.44.17.45.41.02.24-.16.46-.39.47ZM98.54.87c.01-.48.39-.87.85-.87,0,0,.01,0,.02,0,.47.01.84.42.83.91l-.25,10.95c-.01.48-.39.87-.85.87,0,0-.01,0-.02,0-.47-.01-.84-.42-.83-.91l.25-10.95ZM99.16,27.44s.01,0,.02,0c.38,0,.7.32.71.73l.18,8.32c0,.41-.3.75-.69.76-.39,0-.72-.32-.72-.72l-.18-8.32c0-.41.3-.75.69-.76ZM98.47,24.16l.03-9.63c0-.45.35-.81.78-.81h0c.43,0,.78.37.78.82l-.03,9.63c0,.45-.35.81-.78.81h0c-.43,0-.78-.37-.78-.82ZM99.03,41.15s.03,0,.04,0c.33,0,.62.27.64.63l.4,7.01c.02.37-.25.68-.6.71-.35.02-.65-.26-.67-.63l-.4-7.01c-.02-.37.25-.68.6-.71ZM98.9,54.87s.04,0,.06,0c.28,0,.53.22.56.53l.61,5.69c.03.33-.19.62-.5.66-.31.04-.59-.2-.63-.52l-.61-5.69c-.03-.33.19-.62.5-.66ZM98.76,68.6s.06,0,.1,0c.23,0,.44.17.49.42l.83,4.38c.05.28-.12.55-.39.61-.27.06-.53-.13-.58-.41l-.83-4.38c-.05-.28.12-.55.39-.61ZM98.6,82.33s.09-.03.14-.03c.17,0,.34.11.4.3l1.04,3.06c.08.23-.04.48-.26.57-.22.08-.46-.04-.54-.27l-1.04-3.06c-.08-.23.04-.48.26-.57ZM98.43,96.1c.06-.05.14-.07.21-.07.11,0,.21.05.28.15l1.25,1.75c.12.16.09.39-.07.52s-.38.09-.49-.07l-1.25-1.75c-.12-.16-.09-.39.07-.52ZM86.88,13.71s.07,0,.11,0c.39,0,.73.3.79.72l1.27,9.61c.06.46-.24.88-.68.94-.43.06-.84-.26-.9-.71l-1.27-9.61c-.06-.46.24-.88.68-.94ZM86.76,27.42s.09-.01.13-.01c.35,0,.65.26.72.63l1.46,8.29c.07.42-.19.82-.59.89-.4.08-.78-.2-.85-.61l-1.46-8.29c-.07-.42.19-.82.59-.89ZM86.64,41.14c.05-.01.11-.02.16-.02.3,0,.57.21.65.53l1.65,6.97c.09.38-.13.76-.49.85-.36.09-.72-.14-.81-.51l-1.65-6.97c-.09-.38.13-.76.49-.85ZM86.51,54.86c.06-.02.13-.03.2-.03.25,0,.49.17.57.43l1.84,5.64c.11.33-.06.69-.38.81-.32.11-.66-.06-.77-.39l-1.84-5.64c-.11-.33.06-.69.38-.81ZM86.37,68.6c.08-.04.16-.06.24-.06.2,0,.39.12.49.32l2.03,4.32c.13.28.02.62-.25.76-.27.14-.59.02-.73-.26l-2.03-4.32c-.13-.28-.02-.62.25-.76ZM86.22,82.35c.09-.07.19-.11.29-.11.14,0,.28.07.38.19l2.22,3c.16.22.12.53-.08.7-.21.17-.51.13-.67-.09l-2.22-3c-.16-.22-.12-.53.08-.7ZM86.07,96.15c.08-.13.21-.2.35-.2.08,0,.16.02.23.07l2.42,1.68c.19.13.24.4.12.6-.13.2-.39.26-.58.12l-2.42-1.68c-.19-.13-.24-.4-.12-.6ZM89.13,147.22l-2.03,4.32c-.09.2-.29.32-.49.32-.08,0-.16-.02-.24-.06-.27-.14-.38-.48-.25-.76l2.03-4.32c.13-.28.46-.4.73-.26.27.14.38.48.25.76ZM89.11,134.96l-2.22,3c-.09.13-.24.19-.38.19-.1,0-.21-.03-.29-.11-.21-.17-.25-.49-.08-.7l2.22-3c.16-.22.46-.26.67-.09.21.17.25.49.08.7ZM89.06,122.69l-2.42,1.68c-.07.05-.15.07-.23.07-.13,0-.27-.07-.35-.2-.13-.2-.07-.47.12-.6l2.42-1.68c.19-.13.45-.08.58.12.13.2.07.47-.12.6ZM88.97,110.38l-2.61.35s-.03,0-.05,0c-.17,0-.33-.14-.35-.32-.02-.2.11-.39.3-.41l2.61-.35c.19-.03.37.12.4.32.02.2-.11.39-.3.41ZM99.34,151.39c-.05.25-.25.42-.49.42-.03,0-.06,0-.1,0-.27-.06-.44-.33-.39-.61l.83-4.38c.05-.28.31-.46.58-.41.27.06.44.33.39.61l-.83,4.38ZM100.19,134.73l-1.04,3.06c-.06.18-.23.3-.4.3-.05,0-.09,0-.14-.03-.22-.08-.34-.34-.26-.57l1.04-3.06c.08-.23.32-.35.54-.27.22.08.34.34.26.57ZM100.17,122.48l-1.25,1.75c-.07.1-.18.15-.28.15-.07,0-.15-.02-.21-.07-.16-.12-.19-.35-.07-.52l1.25-1.75c.12-.16.34-.2.49-.07s.19.35.07.52ZM100.08,110.21l-1.47.44s-.05.01-.08.01c-.12,0-.24-.08-.27-.21-.04-.16.04-.32.19-.36l1.47-.44c.15-.04.31.05.35.2.04.16-.04.32-.19.36ZM122.07,14.42c.06-.42.4-.72.79-.72.04,0,.07,0,.11,0,.43.06.74.48.68.94l-1.27,9.61c-.06.46-.46.78-.9.71-.43-.06-.74-.48-.68-.94l1.27-9.61ZM122.23,28.04c.07-.37.37-.63.72-.63.04,0,.09,0,.13.01.4.08.66.48.59.89l-1.46,8.29c-.07.42-.45.69-.85.61-.4-.08-.66-.48-.59-.89l1.46-8.29ZM120.75,48.62l1.65-6.97c.08-.32.35-.53.65-.53.05,0,.11,0,.16.02.36.09.58.47.49.85l-1.65,6.97c-.09.38-.45.6-.81.51-.36-.09-.58-.47-.49-.85ZM120.73,60.9l1.84-5.64c.09-.26.32-.43.57-.43.06,0,.13.01.2.03.32.11.49.47.38.81l-1.84,5.64c-.11.33-.45.51-.77.39-.32-.11-.49-.47-.38-.81ZM120.72,73.18l2.03-4.32c.09-.2.29-.32.49-.32.08,0,.16.02.24.06.27.14.38.48.25.76l-2.03,4.32c-.13.28-.46.4-.73.26-.27-.14-.38-.48-.25-.76ZM120.73,85.44l2.22-3c.09-.13.24-.19.38-.19.1,0,.21.03.29.11.21.17.25.49.08.7l-2.22,3c-.16.22-.46.26-.67.09-.21-.17-.25-.49-.08-.7ZM120.78,97.71l2.42-1.68c.07-.05.15-.07.23-.07.13,0,.27.07.35.2.13.2.07.47-.12.6l-2.42,1.68c-.19.13-.45.08-.58-.12-.13-.2-.07-.47.12-.6ZM110.44,0s.01,0,.02,0c.46,0,.84.39.85.87l.25,10.95c.01.49-.36.9-.83.91,0,0-.01,0-.02,0-.46,0-.84-.39-.85-.87l-.25-10.95c-.01-.49.36-.9.83-.91ZM109.96,28.16c0-.4.32-.73.71-.73,0,0,.01,0,.02,0,.39,0,.7.35.69.76l-.18,8.32c0,.41-.34.72-.72.72-.39,0-.7-.35-.69-.76l.18-8.32ZM109.78,14.54c0-.45.35-.82.78-.82h0c.43,0,.78.36.78.81l.03,9.63c0,.45-.35.82-.78.82h0c-.43,0-.78-.36-.78-.81l-.03-9.63ZM110.14,41.78c.02-.35.3-.63.64-.63.01,0,.03,0,.04,0,.35.02.62.34.6.71l-.4,7.01c-.02.37-.32.65-.67.63-.35-.02-.62-.34-.6-.71l.4-7.01ZM110.32,55.4c.03-.3.28-.53.56-.53.02,0,.04,0,.06,0,.31.04.53.33.5.66l-.61,5.69c-.03.33-.32.56-.63.52-.31-.04-.53-.33-.5-.66l.61-5.69ZM110.51,69.01c.05-.25.25-.42.48-.42.03,0,.06,0,.1,0,.27.06.44.33.39.61l-.83,4.38c-.05.28-.31.46-.58.41-.27-.06-.44-.33-.39-.61l.83-4.38ZM110.7,82.6c.06-.18.23-.3.4-.3.05,0,.1,0,.14.03.22.08.34.34.26.57l-1.04,3.06c-.08.23-.32.35-.54.27-.22-.08-.34-.34-.26-.57l1.04-3.06ZM109.67,97.92l1.25-1.75c.07-.1.18-.15.28-.15.07,0,.15.02.21.07.16.12.19.35.07.52l-1.25,1.75c-.12.16-.34.2-.49.07-.16-.12-.19-.35-.07-.52ZM111.09,151.8s-.06,0-.1,0c-.23,0-.44-.17-.48-.42l-.83-4.38c-.05-.28.12-.55.39-.61.27-.06.53.13.58.41l.83,4.38c.05.28-.12.55-.39.61ZM111.24,138.07s-.09.03-.14.03c-.17,0-.34-.11-.4-.3l-1.04-3.06c-.08-.23.04-.48.26-.57.22-.08.46.04.54.27l1.04,3.06c.08.23-.04.48-.26.57ZM111.42,124.3c-.06.05-.14.07-.21.07-.11,0-.21-.05-.28-.15l-1.25-1.75c-.12-.16-.09-.39.07-.52.16-.12.38-.09.49.07l1.25,1.75c.12.16.09.39-.07.52ZM111.31,110.66s-.05,0-.08-.01l-1.47-.44c-.15-.04-.24-.21-.19-.36.04-.16.2-.25.35-.2l1.47.44c.15.04.24.21.19.36-.04.13-.15.21-.27.21ZM123.48,151.8c-.08.04-.16.06-.24.06-.2,0-.39-.12-.49-.32l-2.03-4.32c-.13-.28-.02-.62.25-.76.27-.14.59-.02.73.26l2.03,4.32c.13.28.02.62-.25.76ZM123.63,138.05c-.09.07-.19.11-.29.11-.14,0-.28-.07-.38-.19l-2.22-3c-.16-.22-.12-.53.08-.7.21-.17.51-.13.67.09l2.22,3c.16.22.12.53-.08.7ZM123.78,124.25c-.08.13-.21.2-.35.2-.08,0-.16-.02-.23-.07l-2.42-1.68c-.19-.13-.24-.4-.12-.6.13-.2.38-.26.58-.12l2.42,1.68c.19.13.24.4.12.6ZM123.53,110.73s-.03,0-.05,0l-2.61-.35c-.19-.03-.33-.21-.3-.41.02-.2.2-.35.4-.32l2.61.35c.19.03.33.21.3.41-.02.19-.17.32-.35.32ZM187.2,84.53l9.33-2.6c.07-.02.14-.03.21-.03.36,0,.69.25.78.63.12.45-.14.92-.58,1.04l-9.33,2.6c-.43.12-.88-.15-.99-.6-.11-.45.14-.92.58-1.04ZM187.29,96.79l9.38-1.22s.07,0,.1,0c.4,0,.74.31.79.73.05.46-.26.87-.69.93l-9.38,1.22c-.43.05-.83-.27-.89-.72-.05-.46.26-.87.69-.93ZM176.06,72.41l8.08-4.04c.11-.05.22-.08.33-.08.29,0,.57.17.7.47.19.41.02.89-.37,1.09l-8.08,4.04c-.39.19-.85.02-1.04-.39-.19-.41-.02-.89.37-1.09ZM176.13,84.66l8.15-2.67c.07-.02.15-.04.23-.04.32,0,.62.22.72.56.12.42-.1.86-.5.99l-8.15,2.67c-.4.13-.82-.1-.95-.52-.12-.42.1-.86.5-.99ZM176.21,96.93l8.22-1.3s.07,0,.11,0c.36,0,.67.27.72.65.06.42-.22.81-.61.87l-8.22,1.3c-.4.06-.77-.23-.83-.64-.06-.42.22-.81.61-.87ZM164.94,60.28l6.78-5.45c.14-.11.3-.17.46-.17.23,0,.46.11.61.31.26.35.19.85-.14,1.12l-6.78,5.45c-.33.27-.81.2-1.07-.15-.26-.35-.19-.85.14-1.12ZM164.99,72.53l6.87-4.09c.11-.07.24-.1.36-.1.25,0,.5.14.64.39.2.37.08.84-.27,1.05l-6.87,4.09c-.35.21-.8.08-1-.29-.2-.37-.08-.84.27-1.05ZM165.06,84.79l6.96-2.73c.08-.03.16-.05.25-.05.28,0,.55.18.66.48.14.38-.05.8-.41.94l-6.96,2.73c-.36.14-.77-.05-.9-.43-.14-.38.05-.8.41-.94ZM165.14,97.08l7.06-1.37s.08-.01.12-.01c.32,0,.6.24.66.57.07.38-.17.75-.54.82l-7.06,1.37c-.36.07-.71-.18-.78-.56-.07-.38.17-.75.54-.82ZM153.88,60.41l5.54-5.5c.14-.14.32-.21.5-.21.19,0,.38.08.53.24.28.3.26.78-.03,1.07l-5.54,5.5c-.29.29-.75.28-1.02-.03-.28-.3-.26-.78.03-1.07ZM153.93,72.67l5.66-4.15c.12-.09.26-.13.39-.13.22,0,.43.11.56.31.22.32.14.77-.17,1l-5.66,4.15c-.31.23-.74.15-.95-.18-.22-.32-.14-.77.17-1ZM153.99,84.94l5.78-2.8c.09-.04.18-.06.27-.06.24,0,.48.15.59.39.15.34,0,.74-.31.9l-5.78,2.8c-.32.16-.71,0-.86-.33-.15-.34,0-.74.31-.9ZM154.06,97.22l5.9-1.45s.09-.02.14-.02c.27,0,.52.2.59.49.08.34-.13.68-.45.76l-5.9,1.45c-.32.08-.65-.13-.73-.47-.08-.34.13-.68.45-.76ZM142.8,48.3l4.17-6.89c.14-.23.38-.36.62-.36.13,0,.27.04.39.12.34.23.44.7.23,1.06l-4.17,6.89c-.22.36-.67.46-1.01.24-.34-.23-.44-.7-.23-1.06ZM142.82,60.56l4.31-5.55c.14-.17.33-.26.53-.26.15,0,.3.05.43.16.29.25.34.7.1,1.01l-4.31,5.55c-.24.31-.67.35-.96.1-.29-.25-.34-.7-.1-1.01ZM142.85,72.82l4.45-4.21c.12-.12.27-.17.43-.17.17,0,.35.07.47.22.24.27.21.7-.05.94l-4.45,4.21c-.26.25-.66.23-.9-.05-.24-.27-.21-.7.05-.94ZM142.91,85.08l4.59-2.87c.09-.06.2-.09.3-.09.2,0,.4.11.51.3.17.29.07.67-.21.85l-4.59,2.87c-.28.17-.64.08-.81-.21-.17-.29-.07-.67.21-.85ZM142.98,97.37l4.74-1.52c.05-.02.11-.02.16-.02.23,0,.45.16.52.4.09.3-.07.62-.36.71l-4.74,1.52c-.29.09-.59-.08-.68-.38-.09-.3.07-.62.36-.71ZM131.78,36.18l2.74-8.26c.11-.33.4-.53.71-.53.08,0,.17.01.25.04.39.14.6.59.47,1.01l-2.74,8.26c-.14.41-.57.63-.96.49-.39-.14-.6-.59-.47-1.01ZM131.77,48.45l2.91-6.93c.12-.27.37-.44.64-.44.09,0,.19.02.28.06.35.16.51.6.36.97l-2.91,6.93c-.16.37-.57.54-.92.38-.35-.16-.51-.6-.36-.97ZM131.77,60.72l3.08-5.6c.12-.22.34-.34.56-.34.11,0,.22.03.32.09.31.19.41.6.24.92l-3.08,5.6c-.18.32-.57.43-.88.25-.31-.19-.41-.6-.24-.92ZM131.78,72.99l3.24-4.26c.12-.15.29-.23.46-.23.13,0,.26.04.37.13.25.21.3.6.09.87l-3.24,4.26c-.2.27-.57.31-.83.1-.25-.21-.3-.6-.09-.87ZM131.82,85.25l3.41-2.93c.1-.09.22-.13.34-.13.15,0,.31.07.41.2.19.24.15.59-.07.79l-3.41,2.93c-.23.2-.57.16-.75-.08-.19-.24-.15-.59.07-.79ZM131.89,97.53l3.58-1.6c.06-.03.13-.04.19-.04.19,0,.36.11.44.3.1.26,0,.55-.25.66l-3.58,1.6c-.24.11-.52,0-.63-.26-.1-.26,0-.55.25-.66ZM135.26,220.39c-.07.02-.13.02-.2.02-.39,0-.75-.28-.84-.7l-2.41-10.93c-.11-.49.18-.98.65-1.09.47-.11.93.19,1.04.68l2.41,10.93c.11.49-.18.98-.65,1.09ZM135.37,206.68c-.07.02-.15.03-.22.03-.35,0-.68-.25-.78-.62l-2.58-9.59c-.12-.45.13-.92.56-1.05.43-.13.88.14,1,.59l2.58,9.59c.12.45-.13.92-.56,1.05ZM135.48,192.97c-.08.03-.17.04-.25.04-.31,0-.61-.2-.71-.53l-2.74-8.26c-.14-.41.07-.86.47-1.01.39-.14.82.07.96.49l2.74,8.26c.14.41-.07.86-.47,1.01ZM135.6,179.25c-.09.04-.19.06-.28.06-.27,0-.53-.16-.64-.44l-2.91-6.93c-.16-.37,0-.8.36-.97.35-.16.77,0,.92.38l2.91,6.93c.16.37,0,.8-.36.97ZM135.72,165.52c-.1.06-.21.09-.32.09-.22,0-.44-.12-.56-.34l-3.08-5.6c-.18-.32-.07-.74.24-.92.31-.19.7-.08.88.25l3.08,5.6c.18.32.07.74-.24.92ZM135.85,151.78c-.11.09-.24.13-.37.13-.17,0-.35-.08-.46-.23l-3.24-4.26c-.2-.27-.16-.66.09-.87.26-.21.63-.17.83.1l3.24,4.26c.2.27.16.66-.09.87ZM135.98,138c-.11.13-.26.2-.41.2-.12,0-.24-.04-.34-.13l-3.41-2.93c-.23-.2-.26-.55-.07-.79.19-.24.52-.27.75-.08l3.41,2.93c.23.2.26.55.07.79ZM136.09,124.2c-.08.19-.25.3-.44.3-.06,0-.13-.01-.19-.04l-3.58-1.6c-.24-.11-.36-.4-.25-.66.1-.25.39-.37.63-.26l3.58,1.6c.24.11.36.4.25.66ZM135.74,110.81s-.02,0-.03,0l-3.74-.27c-.23-.02-.41-.23-.39-.47.02-.24.22-.43.45-.41l3.74.27c.23.02.41.23.39.47-.02.23-.2.41-.42.41ZM147.67,220.37c-.1.04-.2.05-.3.05-.36,0-.69-.23-.82-.61l-3.74-10.92c-.16-.48.07-1,.53-1.17.45-.17.95.08,1.12.55l3.74,10.92c.16.48-.07,1-.53,1.17ZM147.77,206.66c-.11.05-.22.07-.32.07-.32,0-.63-.2-.76-.53l-3.88-9.57c-.18-.44.02-.95.44-1.14.42-.19.91.02,1.08.46l3.88,9.58c.18.44-.02.95-.44,1.14ZM147.87,192.95c-.11.06-.23.09-.35.09-.28,0-.56-.16-.69-.44l-4.02-8.23c-.2-.4-.04-.89.34-1.1.38-.21.85-.05,1.05.35l4.02,8.23c.2.4.04.89-.34,1.1ZM147.98,179.23c-.12.08-.26.12-.39.12-.24,0-.48-.13-.62-.36l-4.17-6.89c-.22-.36-.11-.83.23-1.06.34-.23.79-.12,1.01.24l4.17,6.89c.22.36.11.83-.23,1.06ZM148.09,165.49c-.13.11-.28.16-.43.16-.2,0-.4-.09-.53-.26l-4.31-5.55c-.24-.31-.19-.76.1-1.01.29-.25.72-.2.96.1l4.31,5.55c.24.31.19.76-.1,1.01ZM148.21,151.74c-.13.15-.3.22-.47.22-.15,0-.3-.06-.43-.17l-4.45-4.21c-.26-.25-.28-.67-.05-.94.24-.27.64-.3.9-.05l4.45,4.21c.26.25.28.67.05.94ZM148.31,137.97c-.11.19-.31.3-.51.3-.1,0-.21-.03-.3-.09l-4.59-2.87c-.28-.17-.37-.55-.21-.85.17-.29.53-.39.81-.21l4.59,2.87c.28.17.37.55.21.85ZM148.39,124.17c-.07.24-.29.4-.52.4-.05,0-.11,0-.16-.03l-4.74-1.52c-.29-.09-.45-.41-.36-.71.09-.3.39-.47.68-.38l4.74,1.52c.29.09.45.41.36.71ZM147.95,110.88s-.01,0-.02,0l-4.88-.18c-.27-.01-.49-.25-.48-.54,0-.29.24-.52.51-.5l4.88.18c.27.01.49.25.48.54,0,.28-.23.5-.49.5ZM160.07,220.34c-.12.06-.26.09-.39.09-.33,0-.64-.19-.79-.52l-5.07-10.91c-.21-.46-.03-1.01.41-1.23.44-.22.97-.03,1.18.43l5.07,10.91c.21.46.03,1.01-.41,1.23ZM160.16,206.63c-.13.08-.27.12-.42.12-.29,0-.58-.16-.73-.45l-5.19-9.56c-.23-.42-.09-.96.32-1.2.4-.24.92-.09,1.15.33l5.19,9.56c.23.42.09.96-.32,1.2ZM160.25,192.92c-.14.1-.29.14-.45.14-.26,0-.51-.13-.67-.37l-5.31-8.2c-.25-.38-.15-.91.21-1.17.37-.26.87-.16,1.12.22l5.31,8.2c.25.38.15.91-.21,1.17ZM160.35,179.19c-.14.12-.32.18-.49.18-.22,0-.44-.1-.59-.29l-5.42-6.85c-.27-.34-.22-.84.1-1.13.32-.28.81-.24,1.08.11l5.42,6.85c.27.34.22.84-.1,1.13ZM160.44,165.46c-.14.16-.33.24-.53.24-.18,0-.36-.07-.5-.21l-5.54-5.5c-.29-.29-.3-.77-.03-1.07.27-.3.73-.32,1.02-.03l5.54,5.5c.29.29.3.77.03,1.07ZM160.54,151.7c-.13.2-.35.31-.56.31-.14,0-.27-.04-.39-.13l-5.66-4.15c-.31-.23-.39-.67-.17-1,.22-.32.64-.4.95-.18l5.66,4.15c.31.23.39.67.17,1ZM160.62,137.93c-.11.25-.34.39-.59.39-.09,0-.18-.02-.27-.06l-5.78-2.8c-.32-.16-.46-.56-.31-.9.15-.34.53-.49.86-.33l5.78,2.8c.32.16.46.56.31.9ZM160.69,124.15c-.07.29-.31.49-.59.49-.05,0-.09,0-.14-.02l-5.9-1.45c-.33-.08-.53-.42-.45-.76.08-.34.4-.55.73-.47l5.9,1.45c.33.08.53.42.45.76ZM160.16,110.96s0,0,0,0l-6.02-.1c-.31,0-.56-.27-.56-.6,0-.32.26-.58.57-.58,0,0,0,0,0,0l6.02.1c.31,0,.56.27.56.6,0,.32-.26.58-.57.58ZM172.45,220.3c-.15.09-.31.14-.47.14-.3,0-.59-.16-.76-.44l-6.4-10.9c-.26-.44-.13-1.01.29-1.28.42-.27.97-.13,1.22.31l6.4,10.9c.26.44.13,1.01-.29,1.28ZM172.53,206.6c-.15.11-.33.17-.5.17-.27,0-.53-.13-.7-.38l-6.49-9.54c-.28-.4-.19-.97.2-1.25.39-.29.92-.19,1.2.21l6.49,9.54c.28.4.19.97-.2,1.25ZM172.62,192.88c-.16.14-.34.2-.53.2-.24,0-.47-.1-.63-.31l-6.59-8.18c-.29-.37-.25-.91.1-1.22.35-.31.87-.26,1.16.1l6.59,8.18c.29.37.25.91-.1,1.22ZM172.7,179.16c-.16.17-.36.25-.57.25s-.4-.08-.55-.24l-6.68-6.82c-.31-.32-.32-.85-.01-1.18.31-.33.81-.34,1.12-.02l6.68,6.82c.31.32.32.85.01,1.18ZM172.78,165.42c-.15.2-.38.31-.61.31-.16,0-.33-.05-.46-.17l-6.78-5.45c-.33-.27-.4-.77-.14-1.12.26-.35.74-.42,1.07-.15l6.78,5.45c.33.27.4.77.14,1.12ZM172.86,151.67c-.13.25-.38.39-.64.39-.12,0-.25-.03-.36-.1l-6.87-4.09c-.35-.21-.47-.68-.27-1.05.2-.37.65-.5,1-.29l6.87,4.09c.35.21.47.68.27,1.05ZM172.93,137.91c-.11.29-.37.48-.66.48-.08,0-.16-.02-.25-.05l-6.96-2.73c-.36-.14-.55-.56-.41-.94.14-.38.54-.57.9-.43l6.96,2.73c.36.14.55.56.41.94ZM172.32,124.71s-.08,0-.12-.01l-7.06-1.37c-.36-.07-.6-.44-.54-.82.07-.38.42-.63.78-.56l7.06,1.37c.36.07.6.44.54.82-.06.34-.34.57-.66.57ZM172.37,111.03h-7.16c-.35-.01-.64-.31-.64-.68,0-.37.29-.67.64-.67h7.16c.35.01.64.31.64.68,0,.37-.29.67-.64.67ZM184.83,220.26c-.16.13-.35.19-.53.19-.27,0-.54-.13-.72-.38l-7.72-10.89c-.3-.42-.21-1.01.18-1.32.4-.31.96-.22,1.26.19l7.72,10.89c.3.42.21,1.01-.18,1.32ZM184.9,206.56c-.16.15-.37.22-.57.22-.25,0-.49-.11-.66-.32l-7.8-9.52c-.31-.38-.27-.96.09-1.29.37-.33.92-.29,1.23.1l7.8,9.52c.31.38.27.96-.09,1.29ZM184.97,192.85c-.17.18-.39.26-.6.26s-.43-.09-.6-.26l-7.87-8.15c-.33-.35-.34-.91,0-1.26.33-.35.87-.35,1.2,0l7.87,8.15c.33.35.34.91,0,1.26ZM185.04,179.13c-.16.21-.4.32-.64.32-.18,0-.37-.06-.52-.19l-7.94-6.78c-.35-.3-.41-.85-.12-1.22.29-.37.81-.43,1.16-.12l7.94,6.78c.35.3.41.85.12,1.22ZM185.11,165.39c-.15.25-.41.39-.68.39-.15,0-.3-.04-.43-.13l-8.01-5.41c-.37-.25-.48-.77-.24-1.16.24-.39.74-.5,1.11-.25l8.01,5.41c.37.25.48.77.24,1.16ZM185.18,151.64c-.13.29-.41.47-.7.47-.11,0-.23-.03-.33-.08l-8.08-4.04c-.39-.19-.55-.68-.37-1.09.19-.41.65-.58,1.04-.39l8.08,4.04c.39.19.55.68.37,1.09ZM185.23,137.89c-.1.34-.4.56-.72.56-.07,0-.15-.01-.23-.04l-8.15-2.67c-.4-.13-.62-.57-.5-.99.12-.42.55-.65.95-.52l8.15,2.67c.4.13.62.57.5.99ZM184.54,124.77s-.07,0-.11,0l-8.22-1.3c-.4-.06-.68-.45-.61-.87.06-.42.43-.71.83-.64l8.22,1.3c.4.06.68.45.61.87-.05.38-.37.65-.72.65ZM184.58,111.11l-8.29.08s0,0,0,0c-.39,0-.7-.33-.71-.74,0-.41.31-.74.7-.75l8.29-.08s0,0,0,0c.39,0,.7.33.71.74,0,.41-.31.74-.7.75ZM197.25,206.52c-.17.18-.4.27-.63.27s-.45-.09-.63-.27l-9.1-9.5c-.35-.36-.35-.95,0-1.32.35-.36.91-.37,1.26,0l9.1,9.5c.35.36.35.95,0,1.32ZM197.31,192.81c-.17.21-.42.32-.67.32-.2,0-.4-.07-.56-.22l-9.15-8.12c-.37-.33-.41-.9-.1-1.29.31-.39.86-.43,1.23-.11l9.15,8.12c.37.33.41.9.1,1.29ZM186.77,171.32c.27-.41.81-.51,1.2-.22l9.19,6.74c.39.28.48.85.21,1.25-.17.25-.43.38-.7.38-.17,0-.34-.05-.49-.16l-9.19-6.74c-.39-.28-.48-.85-.21-1.25ZM197.43,165.36c-.15.29-.44.46-.74.46-.14,0-.28-.04-.41-.11l-9.24-5.36c-.41-.24-.55-.77-.33-1.2.23-.43.74-.58,1.15-.34l9.24,5.36c.41.24.55.77.33,1.2ZM197.48,151.62c-.13.34-.44.54-.77.54-.1,0-.21-.02-.31-.06l-9.29-3.98c-.42-.18-.63-.69-.45-1.13.17-.44.66-.65,1.08-.47l9.29,3.98c.42.18.63.69.45,1.13ZM186.62,134.83c.11-.45.56-.72.99-.6l9.33,2.6c.43.12.69.59.58,1.04-.1.38-.42.63-.78.63-.07,0-.14,0-.21-.03l-9.33-2.6c-.43-.12-.69-.59-.58-1.04ZM196.77,124.84s-.07,0-.1,0l-9.38-1.22c-.44-.06-.75-.47-.69-.93.05-.46.45-.78.89-.72l9.38,1.22c.44.06.75.47.69.93-.05.42-.39.73-.79.73ZM196.8,111.18l-9.43.16h-.01c-.42,0-.77-.36-.78-.8,0-.45.34-.82.77-.83l9.43-.16h.01c.42,0,.77.36.78.8,0,.45-.34.82-.77.83ZM209.08,97.29l-10.54,1.14c-.47.05-.89-.31-.94-.8-.05-.49.29-.94.77-.99l10.54-1.14s.06,0,.09,0c.43,0,.81.34.85.81.05.49-.29.94-.77.99Z"/><path class="cls-2" d="M111.39,110.08l-1.47-.44c-.15-.04-.31.05-.35.2-.04.16.04.32.19.36l1.47.44s.05.01.08.01c.12,0,.24-.08.27-.21.04-.16-.04-.32-.19-.36Z"/><path class="cls-2" d="M110.24,122.03c-.12-.16-.34-.2-.49-.07-.16.12-.19.35-.07.52l1.25,1.75c.07.1.18.15.28.15.07,0,.15-.02.21-.07.16-.12.19-.35.07-.52l-1.25-1.75Z"/><path class="cls-2" d="M110.46,134.44c-.08-.23-.32-.35-.54-.27-.22.08-.34.34-.26.57l1.04,3.06c.06.18.23.3.4.3.05,0,.1,0,.14-.03.22-.08.34-.34.26-.57l-1.04-3.06Z"/><path class="cls-2" d="M110.07,146.41c-.27.06-.44.33-.39.61l.83,4.38c.05.25.25.42.48.42.03,0,.06,0,.1,0,.27-.06.44-.33.39-.61l-.83-4.38c-.05-.28-.31-.46-.58-.41Z"/><path class="cls-2" d="M110.21,158.65c-.31.04-.53.33-.5.66l.36,3.33h1.14l-.37-3.47c-.03-.33-.32-.56-.63-.52Z"/><path class="cls-2" d="M123.57,110l-2.61-.35c-.19-.03-.37.12-.4.32-.02.2.11.39.3.41l2.61.35s.03,0,.05,0c.17,0,.33-.14.35-.32.02-.2-.11-.39-.3-.41Z"/><path class="cls-2" d="M121.24,121.97c-.19-.13-.45-.08-.58.12-.13.2-.07.47.12.6l2.42,1.68c.07.05.15.07.23.07.13,0,.27-.07.35-.2.13-.2.07-.47-.12-.6l-2.42-1.68Z"/><path class="cls-2" d="M121.49,134.34c-.16-.22-.46-.26-.67-.09-.21.17-.25.49-.08.7l2.22,3c.09.13.24.19.38.19.1,0,.21-.03.29-.11.21-.17.25-.49.08-.7l-2.22-3Z"/><path class="cls-2" d="M121.69,146.72c-.13-.28-.46-.4-.73-.26-.27.14-.38.48-.25.76l2.03,4.32c.09.2.29.32.49.32.08,0,.16-.02.24-.06.27-.14.38-.48.25-.76l-2.03-4.32Z"/><path class="cls-2" d="M121.1,158.69c-.32.11-.49.47-.38.81l1.03,3.15h1.28l-1.16-3.56c-.11-.33-.45-.51-.77-.39Z"/><path class="cls-2" d="M135.76,109.92l-3.74-.27c-.23-.01-.44.17-.45.41-.02.24.16.46.39.47l3.74.27s.02,0,.03,0c.22,0,.41-.18.42-.41.02-.24-.16-.46-.39-.47Z"/><path class="cls-2" d="M135.84,123.54l-3.58-1.6c-.24-.11-.52,0-.63.26-.1.25,0,.55.25.66l3.58,1.6c.06.03.13.04.19.04.19,0,.36-.11.44-.3.1-.26,0-.55-.25-.66Z"/><path class="cls-2" d="M132.5,134.28c-.23-.2-.57-.16-.75.08-.19.24-.15.59.07.79l3.41,2.93c.1.09.22.13.34.13.15,0,.31-.07.41-.2.19-.24.15-.59-.07-.79l-3.41-2.93Z"/><path class="cls-2" d="M132.7,146.64c-.2-.27-.57-.31-.83-.1-.25.21-.3.6-.09.87l3.24,4.26c.12.15.29.23.46.23.13,0,.26-.04.37-.13.25-.21.3-.6.09-.87l-3.24-4.26Z"/><path class="cls-2" d="M132.88,159c-.18-.32-.57-.43-.88-.25-.31.19-.41.6-.24.92l3.08,5.6c.12.22.34.34.56.34.11,0,.22-.03.32-.09.31-.19.41-.6.24-.92l-3.08-5.6Z"/><path class="cls-2" d="M133.05,171.35c-.16-.37-.57-.54-.92-.38-.35.16-.51.6-.36.97l2.91,6.93c.12.27.37.44.64.44.09,0,.19-.02.28-.06.35-.16.51-.6.36-.97l-2.91-6.93Z"/><path class="cls-2" d="M133.21,183.7c-.14-.41-.57-.63-.96-.49-.39.14-.6.59-.47,1.01l2.74,8.26c.11.33.4.53.71.53.08,0,.17-.01.25-.04.39-.14.6-.59.47-1.01l-2.74-8.26Z"/><path class="cls-2" d="M133.36,196.04c-.12-.45-.57-.71-1-.59-.43.13-.68.6-.56,1.05l2.58,9.59c.1.37.43.62.78.62.07,0,.15-.01.22-.03.43-.13.68-.6.56-1.05l-2.58-9.59Z"/><path class="cls-2" d="M133.5,208.38c-.11-.49-.57-.79-1.04-.68-.47.11-.76.6-.65,1.09l2.41,10.93c.09.42.45.7.84.7.06,0,.13,0,.2-.02.47-.11.76-.6.65-1.09l-2.41-10.93Z"/><path class="cls-2" d="M147.96,109.85l-4.88-.18c-.27-.02-.5.21-.51.5,0,.29.2.53.48.54l4.88.18s.01,0,.02,0c.27,0,.48-.22.49-.5,0-.29-.2-.53-.48-.54Z"/><path class="cls-2" d="M148.03,123.46l-4.74-1.52c-.29-.09-.59.08-.68.38-.09.3.07.62.36.71l4.74,1.52c.05.02.11.03.16.03.23,0,.45-.16.52-.4.09-.3-.07-.62-.36-.71Z"/><path class="cls-2" d="M148.11,137.12l-4.59-2.87c-.28-.17-.64-.08-.81.21-.17.29-.07.67.21.85l4.59,2.87c.09.06.2.09.3.09.2,0,.4-.11.51-.3.17-.29.07-.67-.21-.85Z"/><path class="cls-2" d="M143.71,146.59c-.26-.25-.66-.23-.9.05-.24.27-.21.7.05.94l4.45,4.21c.12.12.27.17.43.17.17,0,.35-.07.47-.22.24-.27.21-.7-.05-.94l-4.45-4.21Z"/><path class="cls-2" d="M143.88,158.93c-.24-.31-.67-.35-.96-.1-.29.25-.34.7-.1,1.01l4.31,5.55c.14.17.33.26.53.26.15,0,.3-.05.43-.16.29-.25.34-.7.1-1.01l-4.31-5.55Z"/><path class="cls-2" d="M144.04,171.28c-.22-.36-.67-.46-1.01-.24-.34.23-.44.7-.23,1.06l4.17,6.89c.14.23.38.36.62.36.13,0,.27-.04.39-.12.34-.23.44-.7.23-1.06l-4.17-6.89Z"/><path class="cls-2" d="M144.19,183.62c-.2-.4-.67-.56-1.05-.35-.38.21-.53.7-.34,1.1l4.02,8.23c.14.28.41.44.69.44.12,0,.24-.03.35-.09.38-.21.53-.7.34-1.1l-4.02-8.23Z"/><path class="cls-2" d="M144.33,195.95c-.18-.44-.66-.64-1.08-.46-.42.19-.62.7-.44,1.14l3.88,9.57c.13.33.44.53.76.53.11,0,.22-.02.32-.07.42-.19.62-.7.44-1.14l-3.88-9.58Z"/><path class="cls-2" d="M144.46,208.28c-.16-.48-.66-.72-1.12-.55-.45.17-.69.7-.53,1.17l3.74,10.92c.13.37.46.61.82.61.1,0,.2-.02.3-.05.45-.17.69-.7.53-1.17l-3.74-10.92Z"/><path class="cls-2" d="M160.17,109.77l-6.02-.1s0,0,0,0c-.31,0-.56.26-.57.58,0,.33.24.6.56.6l6.02.1s0,0,0,0c.31,0,.56-.26.57-.58,0-.33-.24-.6-.56-.6Z"/><path class="cls-2" d="M160.24,123.39l-5.9-1.45c-.32-.08-.65.13-.73.47-.08.34.13.68.45.76l5.9,1.45s.09.02.14.02c.27,0,.52-.2.59-.49.08-.34-.13-.68-.45-.76Z"/><path class="cls-2" d="M160.31,137.04l-5.78-2.8c-.32-.16-.71,0-.86.33-.15.34,0,.74.31.9l5.78,2.8c.09.04.18.06.27.06.24,0,.48-.15.59-.39.15-.34,0-.74-.31-.9Z"/><path class="cls-2" d="M154.71,146.56c-.31-.23-.74-.15-.95.18-.22.32-.14.77.17,1l5.66,4.15c.12.09.26.13.39.13.22,0,.43-.11.56-.31.22-.32.14-.77-.17-1l-5.66-4.15Z"/><path class="cls-2" d="M154.87,158.88c-.29-.29-.75-.28-1.02.03-.28.3-.26.78.03,1.07l5.54,5.5c.14.14.32.21.5.21.19,0,.38-.08.53-.24.28-.3.26-.78-.03-1.07l-5.54-5.5Z"/><path class="cls-2" d="M155.02,171.22c-.27-.34-.75-.39-1.08-.11-.32.28-.37.79-.1,1.13l5.42,6.85c.15.19.37.29.59.29.17,0,.34-.06.49-.18.32-.28.37-.79.1-1.13l-5.42-6.85Z"/><path class="cls-2" d="M155.16,183.55c-.25-.38-.75-.48-1.12-.22-.37.26-.46.78-.21,1.17l5.31,8.2c.16.24.41.37.67.37.15,0,.31-.05.45-.14.37-.26.46-.78.21-1.17l-5.31-8.2Z"/><path class="cls-2" d="M155.29,195.87c-.23-.42-.74-.57-1.15-.33-.4.24-.55.78-.32,1.2l5.19,9.56c.16.29.44.45.73.45.14,0,.28-.04.42-.12.4-.24.55-.78.32-1.2l-5.19-9.56Z"/><path class="cls-2" d="M155.41,208.2c-.21-.46-.74-.65-1.18-.43-.44.22-.62.78-.41,1.23l5.07,10.91c.15.33.47.52.79.52.13,0,.26-.03.39-.09.44-.22.62-.78.41-1.23l-5.07-10.91Z"/><path class="cls-2" d="M172.37,109.7h-7.15s0-.01,0-.01c-.35,0-.64.3-.64.67,0,.37.28.67.64.67h7.15s0,.01,0,.01c.35,0,.64-.3.64-.67,0-.37-.28-.67-.64-.67Z"/><path class="cls-2" d="M172.44,123.32l-7.06-1.37c-.36-.07-.71.18-.78.56-.07.38.17.75.54.82l7.06,1.37s.08.01.12.01c.32,0,.6-.24.66-.57.07-.38-.17-.75-.54-.82Z"/><path class="cls-2" d="M172.52,136.96l-6.96-2.73c-.36-.14-.77.05-.9.43-.14.38.05.8.41.94l6.96,2.73c.08.03.16.05.25.05.28,0,.55-.18.66-.48.14-.38-.05-.8-.41-.94Z"/><path class="cls-2" d="M172.59,150.63l-6.87-4.09c-.35-.21-.8-.08-1,.29-.2.37-.08.84.27,1.05l6.87,4.09c.11.07.24.1.36.1.25,0,.5-.14.64-.39.2-.37.08-.84-.27-1.05Z"/><path class="cls-2" d="M165.87,158.85c-.33-.27-.81-.2-1.07.15-.26.35-.19.85.14,1.12l6.78,5.45c.14.11.3.17.46.17.23,0,.46-.11.61-.31.26-.35.19-.85-.14-1.12l-6.78-5.45Z"/><path class="cls-2" d="M166,171.17c-.31-.32-.82-.31-1.12.02-.31.33-.3.86.01,1.18l6.68,6.82c.15.16.35.24.55.24s.41-.08.57-.25c.31-.33.3-.86-.01-1.18l-6.68-6.82Z"/><path class="cls-2" d="M166.13,183.49c-.29-.36-.82-.41-1.16-.1-.35.31-.39.85-.1,1.22l6.59,8.18c.16.2.4.31.63.31.19,0,.38-.07.53-.2.35-.31.39-.85.1-1.22l-6.59-8.18Z"/><path class="cls-2" d="M166.24,195.81c-.28-.4-.81-.5-1.2-.21-.39.29-.48.85-.2,1.25l6.49,9.54c.17.25.43.38.7.38.17,0,.35-.05.5-.17.39-.29.48-.85.2-1.25l-6.49-9.54Z"/><path class="cls-2" d="M166.35,208.12c-.26-.44-.81-.58-1.22-.31-.42.27-.55.84-.29,1.28l6.4,10.9c.17.29.46.44.76.44.16,0,.32-.04.47-.14.42-.27.55-.84.29-1.28l-6.4-10.9Z"/><path class="cls-2" d="M184.58,109.62s0,0,0,0l-8.29.08c-.39,0-.71.34-.7.75,0,.41.32.74.71.74,0,0,0,0,0,0l8.29-.08c.39,0,.71-.34.7-.75,0-.41-.32-.74-.71-.74Z"/><path class="cls-2" d="M184.65,123.25l-8.22-1.3c-.4-.06-.77.23-.83.64-.06.42.22.81.61.87l8.22,1.3s.07,0,.11,0c.36,0,.67-.27.72-.65.06-.42-.22-.81-.61-.87Z"/><path class="cls-2" d="M184.73,136.89l-8.15-2.67c-.4-.13-.82.1-.95.52-.12.42.1.86.5.99l8.15,2.67c.07.02.15.04.23.04.32,0,.62-.22.72-.56.12-.42-.1-.86-.5-.99Z"/><path class="cls-2" d="M184.81,150.56l-8.08-4.04c-.39-.19-.85-.02-1.04.39-.19.41-.02.89.37,1.09l8.08,4.04c.11.05.22.08.33.08.29,0,.57-.17.7-.47.19-.41.02-.89-.37-1.09Z"/><path class="cls-2" d="M176.86,158.82c-.37-.25-.87-.14-1.11.25-.24.39-.13.91.24,1.16l8.01,5.41c.13.09.29.13.43.13.26,0,.52-.14.68-.39.24-.39.13-.91-.24-1.16l-8.01-5.41Z"/><path class="cls-2" d="M176.99,171.13c-.35-.3-.87-.25-1.16.12-.29.37-.24.92.12,1.22l7.94,6.78c.15.13.34.19.52.19.24,0,.48-.11.64-.32.29-.37.24-.92-.12-1.22l-7.94-6.78Z"/><path class="cls-2" d="M177.1,183.44c-.33-.35-.87-.34-1.2,0-.33.35-.33.91,0,1.26l7.87,8.15c.17.17.38.26.6.26s.44-.09.6-.26c.33-.35.33-.91,0-1.26l-7.87-8.15Z"/><path class="cls-2" d="M177.2,195.75c-.31-.38-.87-.43-1.23-.1-.37.33-.41.91-.09,1.29l7.8,9.52c.17.21.42.32.66.32.2,0,.4-.07.57-.22.37-.33.41-.91.09-1.29l-7.8-9.52Z"/><path class="cls-2" d="M177.29,208.06c-.3-.42-.86-.5-1.26-.19-.4.31-.48.9-.18,1.32l7.72,10.89c.18.25.45.38.72.38.19,0,.37-.06.53-.19.4-.31.48-.9.18-1.32l-7.72-10.89Z"/><path class="cls-2" d="M196.79,109.55h-.01l-9.43.16c-.43,0-.77.38-.77.83,0,.45.35.8.78.8h.01l9.43-.16c.43,0,.77-.38.77-.83,0-.45-.35-.8-.78-.8Z"/><path class="cls-2" d="M196.86,123.18l-9.38-1.22c-.43-.05-.83.27-.89.72-.05.46.26.87.69.93l9.38,1.22s.07,0,.1,0c.4,0,.74-.31.79-.73.05-.46-.26-.87-.69-.93Z"/><path class="cls-2" d="M187.2,135.87l9.33,2.6c.07.02.14.03.21.03.36,0,.69-.25.78-.63.12-.45-.14-.92-.58-1.04l-9.33-2.6c-.43-.12-.88.15-.99.6-.11.45.14.92.58,1.04Z"/><path class="cls-2" d="M197.03,150.49l-9.29-3.98c-.42-.18-.91.03-1.08.47-.17.44.03.95.45,1.13l9.29,3.98c.1.04.21.06.31.06.33,0,.63-.2.77-.54.17-.44-.03-.95-.45-1.13Z"/><path class="cls-2" d="M197.1,164.16l-9.24-5.36c-.41-.24-.92-.08-1.15.34-.23.43-.08.96.33,1.2l9.24,5.36c.13.07.27.11.41.11.3,0,.58-.16.74-.46.23-.43.08-.96-.33-1.2Z"/><path class="cls-2" d="M196.18,179.32c.15.11.32.16.49.16.27,0,.54-.13.7-.38.27-.41.18-.97-.21-1.25l-9.19-6.74c-.39-.29-.92-.19-1.2.22-.27.41-.18.97.21,1.25l9.19,6.74Z"/><path class="cls-2" d="M188.07,183.4c-.37-.33-.92-.28-1.23.11-.31.39-.27.96.1,1.29l9.15,8.12c.16.15.36.22.56.22.25,0,.49-.11.67-.32.31-.39.27-.96-.1-1.29l-9.15-8.12Z"/><path class="cls-2" d="M188.15,195.71c-.35-.36-.91-.36-1.26,0-.35.36-.35.96,0,1.32l9.1,9.5c.17.18.4.27.63.27s.46-.09.63-.27c.35-.36.35-.96,0-1.32l-9.1-9.5Z"/><path class="cls-2" d="M188.23,208.01c-.33-.4-.9-.44-1.28-.09-.38.34-.42.94-.09,1.34l9.05,10.88c.18.22.43.33.68.33.21,0,.42-.08.59-.23.07-.06.11-.14.16-.22.05-.15.11-.3.15-.46,0-.23-.06-.47-.22-.66l-9.05-10.88Z"/><path class="cls-2" d="M197.6,110.73v-.23s-.02.08-.02.13c0,.04.02.07.02.1Z"/><path class="cls-2" d="M197.6,122.92v-.19s-.01.03-.01.05c0,.05.01.1.01.15Z"/><path class="cls-2" d="M197.6,135.28v-.08s0,.05,0,.08Z"/><path class="cls-2" d="M197.6,147.46v-.11s0,.08,0,.11Z"/><path class="cls-2" d="M197.6,159.63v-.08s0,.05,0,.08Z"/><path class="cls-2" d="M99.92,109.64l-1.47.44c-.15.04-.24.21-.19.36.04.13.15.21.27.21.03,0,.05,0,.08-.01l1.47-.44c.15-.04.24-.21.19-.36-.04-.16-.2-.25-.35-.2Z"/><path class="cls-2" d="M99.61,122.03l-1.25,1.75c-.12.16-.09.39.07.52.06.05.14.07.21.07.11,0,.21-.05.28-.15l1.25-1.75c.12-.16.09-.39-.07-.52s-.38-.09-.49.07Z"/><path class="cls-2" d="M99.93,134.17c-.22-.08-.46.04-.54.27l-1.04,3.06c-.08.23.04.48.26.57.05.02.09.03.14.03.17,0,.34-.11.4-.3l1.04-3.06c.08-.23-.04-.48-.26-.57Z"/><path class="cls-2" d="M99.77,146.41c-.27-.06-.53.13-.58.41l-.83,4.38c-.05.28.12.55.39.61.03,0,.06,0,.1,0,.23,0,.44-.17.49-.42l.83-4.38c.05-.28-.12-.55-.39-.61Z"/><path class="cls-2" d="M99.63,158.65c-.31-.04-.59.2-.63.52l-.37,3.47h1.14l.36-3.33c.03-.33-.19-.62-.5-.66Z"/><path class="cls-2" d="M88.88,109.64l-2.61.35c-.19.03-.33.21-.3.41.02.19.17.32.35.32.02,0,.03,0,.05,0l2.61-.35c.19-.03.33-.21.3-.41-.02-.2-.2-.35-.4-.32Z"/><path class="cls-2" d="M88.6,121.97l-2.42,1.68c-.19.13-.24.4-.12.6.08.13.21.2.35.2.08,0,.16-.02.23-.07l2.42-1.68c.19-.13.24-.4.12-.6-.13-.2-.39-.26-.58-.12Z"/><path class="cls-2" d="M88.36,134.34l-2.22,3c-.16.22-.12.53.08.7.09.07.19.11.29.11.14,0,.28-.07.38-.19l2.22-3c.16-.22.12-.53-.08-.7-.21-.17-.51-.13-.67.09Z"/><path class="cls-2" d="M88.88,146.46c-.27-.14-.59-.02-.73.26l-2.03,4.32c-.13.28-.02.62.25.76.08.04.16.06.24.06.2,0,.39-.12.49-.32l2.03-4.32c.13-.28.02-.62-.25-.76Z"/><path class="cls-2" d="M88.74,158.69c-.32-.11-.66.06-.77.39l-1.16,3.56h1.28l1.03-3.15c.11-.33-.06-.69-.38-.81Z"/><path class="cls-2" d="M77.82,109.65l-3.74.27c-.23.02-.41.23-.39.47.02.23.2.41.42.41,0,0,.02,0,.03,0l3.74-.27c.23-.02.41-.23.39-.47-.02-.24-.22-.43-.45-.41Z"/><path class="cls-2" d="M77.58,121.95l-3.58,1.6c-.24.11-.36.4-.25.66.08.19.25.3.44.3.06,0,.13-.01.19-.04l3.58-1.6c.24-.11.36-.4.25-.66-.1-.25-.39-.37-.63-.26Z"/><path class="cls-2" d="M77.35,134.28l-3.41,2.93c-.23.2-.26.55-.07.79.11.13.26.2.41.2.12,0,.24-.04.34-.13l3.41-2.93c.23-.2.26-.55.07-.79-.19-.24-.52-.27-.75-.08Z"/><path class="cls-2" d="M77.14,146.64l-3.24,4.26c-.2.27-.16.66.09.87.11.09.24.13.37.13.17,0,.35-.08.46-.23l3.24-4.26c.2-.27.16-.66-.09-.87-.26-.21-.63-.17-.83.1Z"/><path class="cls-2" d="M77.84,158.75c-.31-.19-.7-.08-.88.25l-3.08,5.6c-.18.32-.07.74.24.92.1.06.21.09.32.09.22,0,.44-.12.56-.34l3.08-5.6c.18-.32.07-.74-.24-.92Z"/><path class="cls-2" d="M77.72,170.98c-.35-.16-.77,0-.92.38l-2.91,6.93c-.16.37,0,.8.36.97.09.04.19.06.28.06.27,0,.53-.16.64-.44l2.91-6.93c.16-.37,0-.8-.36-.97Z"/><path class="cls-2" d="M77.6,183.21c-.39-.14-.82.07-.96.49l-2.74,8.26c-.14.41.07.86.47,1.01.08.03.17.04.25.04.31,0,.61-.2.71-.53l2.74-8.26c.14-.41-.07-.86-.47-1.01Z"/><path class="cls-2" d="M77.49,195.45c-.43-.13-.88.14-1,.59l-2.58,9.59c-.12.45.13.92.56,1.05.07.02.15.03.22.03.35,0,.68-.25.78-.62l2.58-9.59c.12-.45-.13-.92-.56-1.05Z"/><path class="cls-2" d="M77.38,207.7c-.47-.11-.93.19-1.04.68l-2.41,10.93c-.11.49.18.98.65,1.09.07.02.13.02.2.02.39,0,.75-.28.84-.7l2.41-10.93c.11-.49-.18-.98-.65-1.09Z"/><path class="cls-2" d="M66.76,109.66l-4.88.18c-.27.01-.49.25-.48.54,0,.28.23.5.49.5,0,0,.01,0,.02,0l4.88-.18c.27-.01.49-.25.48-.54,0-.29-.24-.52-.51-.5Z"/><path class="cls-2" d="M66.55,121.94l-4.74,1.52c-.29.09-.45.41-.36.71.07.24.29.4.52.4.05,0,.11,0,.16-.03l4.74-1.52c.29-.09.45-.41.36-.71-.09-.3-.39-.47-.68-.38Z"/><path class="cls-2" d="M66.34,134.25l-4.59,2.87c-.28.17-.37.55-.21.85.11.19.31.3.51.3.1,0,.21-.03.3-.09l4.59-2.87c.28-.17.37-.55.21-.85-.17-.29-.53-.39-.81-.21Z"/><path class="cls-2" d="M66.14,146.59l-4.45,4.21c-.26.25-.28.67-.05.94.13.15.3.22.47.22.15,0,.3-.06.43-.17l4.45-4.21c.26-.25.28-.67.05-.94-.24-.27-.64-.3-.9-.05Z"/><path class="cls-2" d="M65.96,158.93l-4.31,5.55c-.24.31-.19.76.1,1.01.13.11.28.16.43.16.2,0,.4-.09.53-.26l4.31-5.55c.24-.31.19-.76-.1-1.01-.29-.25-.72-.2-.96.1Z"/><path class="cls-2" d="M65.8,171.28l-4.17,6.89c-.22.36-.11.83.23,1.06.12.08.26.12.39.12.24,0,.48-.13.62-.36l4.17-6.89c.22-.36.11-.83-.23-1.06-.34-.23-.79-.12-1.01.24Z"/><path class="cls-2" d="M66.71,183.26c-.38-.21-.85-.05-1.05.35l-4.02,8.23c-.2.4-.04.89.34,1.1.11.06.23.09.35.09.28,0,.56-.16.69-.44l4.02-8.23c.2-.4.04-.89-.34-1.1Z"/><path class="cls-2" d="M66.6,195.49c-.42-.19-.91.02-1.08.46l-3.88,9.58c-.18.44.02.95.44,1.14.11.05.22.07.32.07.32,0,.63-.2.76-.53l3.88-9.57c.18-.44-.02-.95-.44-1.14Z"/><path class="cls-2" d="M66.5,207.73c-.45-.17-.96.08-1.12.55l-3.74,10.92c-.16.48.07,1,.53,1.17.1.04.2.05.3.05.36,0,.69-.23.82-.61l3.74-10.92c.16-.48-.07-1-.53-1.17Z"/><path class="cls-2" d="M55.71,109.67s0,0,0,0l-6.02.1c-.31,0-.56.27-.56.6,0,.32.26.58.57.58,0,0,0,0,0,0l6.02-.1c.31,0,.56-.27.56-.6,0-.32-.26-.58-.57-.58Z"/><path class="cls-2" d="M55.51,121.94l-5.9,1.45c-.33.08-.53.42-.45.76.07.29.31.49.59.49.05,0,.09,0,.14-.02l5.9-1.45c.33-.08.53-.42.45-.76-.08-.34-.4-.55-.73-.47Z"/><path class="cls-2" d="M55.32,134.24l-5.78,2.8c-.32.16-.46.56-.31.9.11.25.34.39.59.39.09,0,.18-.02.27-.06l5.78-2.8c.32-.16.46-.56.31-.9-.15-.34-.53-.49-.86-.33Z"/><path class="cls-2" d="M55.14,146.56l-5.66,4.15c-.31.23-.39.67-.17,1,.13.2.35.31.56.31.14,0,.27-.04.39-.13l5.66-4.15c.31-.23.39-.67.17-1-.22-.32-.64-.4-.95-.18Z"/><path class="cls-2" d="M54.97,158.88l-5.54,5.5c-.29.29-.3.77-.03,1.07.14.16.33.24.53.24.18,0,.36-.07.5-.21l5.54-5.5c.29-.29.3-.77.03-1.07-.28-.3-.73-.32-1.02-.03Z"/><path class="cls-2" d="M54.82,171.22l-5.42,6.85c-.27.34-.22.84.1,1.13.14.12.32.18.49.18.22,0,.44-.1.59-.29l5.42-6.85c.27-.34.22-.84-.1-1.13-.32-.28-.81-.24-1.08.11Z"/><path class="cls-2" d="M54.69,183.55l-5.31,8.2c-.25.38-.15.91.21,1.17.14.1.29.14.45.14.26,0,.51-.13.67-.37l5.31-8.2c.25-.38.15-.91-.21-1.17-.37-.26-.87-.16-1.12.22Z"/><path class="cls-2" d="M55.71,195.54c-.4-.24-.92-.09-1.15.33l-5.19,9.56c-.23.42-.09.96.32,1.2.13.08.27.12.42.12.29,0,.58-.16.73-.45l5.19-9.56c.23-.42.09-.96-.32-1.2Z"/><path class="cls-2" d="M55.62,207.77c-.44-.22-.97-.03-1.18.43l-5.07,10.91c-.21.46-.03,1.01.41,1.23.12.06.26.09.39.09.33,0,.64-.19.79-.52l5.07-10.91c.21-.46.03-1.01-.41-1.23Z"/><path class="cls-2" d="M44.63,109.69h-7.16c-.35.01-.64.31-.64.68,0,.37.29.67.64.67h7.16c.35-.01.64-.31.64-.68,0-.37-.29-.67-.64-.67Z"/><path class="cls-2" d="M44.46,121.95l-7.06,1.37c-.36.07-.6.44-.54.82.06.34.34.57.66.57.04,0,.08,0,.12-.01l7.06-1.37c.36-.07.6-.44.54-.82-.07-.38-.42-.63-.78-.56Z"/><path class="cls-2" d="M44.29,134.23l-6.96,2.73c-.36.14-.55.56-.41.94.11.29.37.48.66.48.08,0,.16-.02.25-.05l6.96-2.73c.36-.14.55-.56.41-.94-.14-.38-.54-.57-.9-.43Z"/><path class="cls-2" d="M44.13,146.53l-6.87,4.09c-.35.21-.47.68-.27,1.05.13.25.38.39.64.39.12,0,.25-.03.36-.1l6.87-4.09c.35-.21.47-.68.27-1.05-.2-.37-.65-.5-1-.29Z"/><path class="cls-2" d="M43.98,158.85l-6.78,5.45c-.33.27-.4.77-.14,1.12.15.2.38.31.61.31.16,0,.33-.05.46-.17l6.78-5.45c.33-.27.4-.77.14-1.12-.26-.35-.74-.42-1.07-.15Z"/><path class="cls-2" d="M43.84,171.17l-6.68,6.82c-.31.32-.32.85-.01,1.18.16.17.36.25.57.25s.4-.08.55-.24l6.68-6.82c.31-.32.32-.85.01-1.18-.31-.33-.81-.34-1.12-.02Z"/><path class="cls-2" d="M43.72,183.49l-6.59,8.18c-.29.37-.25.91.1,1.22.16.14.34.2.53.2.24,0,.47-.1.63-.31l6.59-8.18c.29-.37.25-.91-.1-1.22-.35-.31-.87-.26-1.16.1Z"/><path class="cls-2" d="M43.6,195.81l-6.49,9.54c-.28.4-.19.97.2,1.25.15.11.33.17.5.17.27,0,.53-.13.7-.38l6.49-9.54c.28-.4.19-.97-.2-1.25-.39-.29-.92-.19-1.2.21Z"/><path class="cls-2" d="M44.72,207.82c-.42-.27-.97-.13-1.22.31l-6.4,10.9c-.26.44-.13,1.01.29,1.28.15.09.31.14.47.14.3,0,.59-.16.76-.44l6.4-10.9c.26-.44.13-1.01-.29-1.28Z"/><path class="cls-2" d="M33.57,109.7l-8.29-.08s0,0,0,0c-.39,0-.7.33-.71.74,0,.41.31.74.7.75l8.29.08s0,0,0,0c.39,0,.7-.33.71-.74,0-.41-.31-.74-.7-.75Z"/><path class="cls-2" d="M33.42,121.95l-8.22,1.3c-.4.06-.67.45-.61.87.05.38.37.65.72.65.04,0,.07,0,.11,0l8.22-1.3c.4-.06.67-.45.61-.87-.06-.42-.43-.71-.83-.64Z"/><path class="cls-2" d="M33.26,134.23l-8.15,2.67c-.4.13-.62.57-.5.99.1.34.4.56.72.56.07,0,.15-.01.23-.04l8.15-2.67c.4-.13.62-.57.5-.99-.12-.42-.55-.65-.95-.52Z"/><path class="cls-2" d="M33.12,146.52l-8.08,4.04c-.39.19-.55.68-.37,1.09.13.29.41.47.7.47.11,0,.23-.03.33-.08l8.08-4.04c.39-.19.55-.68.37-1.09-.19-.41-.65-.58-1.04-.39Z"/><path class="cls-2" d="M32.98,158.82l-8.01,5.41c-.37.25-.48.77-.24,1.16.15.25.41.39.68.39.15,0,.3-.04.43-.13l8.01-5.41c.37-.25.48-.77.24-1.16-.24-.39-.74-.5-1.11-.25Z"/><path class="cls-2" d="M32.86,171.13l-7.94,6.78c-.35.3-.41.85-.12,1.22.16.21.4.32.64.32.18,0,.37-.06.52-.19l7.94-6.78c.35-.3.41-.85.12-1.22-.29-.37-.81-.43-1.16-.12Z"/><path class="cls-2" d="M32.75,183.44l-7.87,8.15c-.33.35-.34.91,0,1.26.17.18.39.26.6.26s.43-.09.6-.26l7.87-8.15c.33-.35.34-.91,0-1.26-.33-.35-.87-.35-1.2,0Z"/><path class="cls-2" d="M32.65,195.75l-7.8,9.52c-.31.38-.27.96.09,1.29.16.15.37.22.57.22.25,0,.49-.11.66-.32l7.8-9.52c.31-.38.27-.96-.09-1.29-.37-.33-.92-.29-1.23.1Z"/><path class="cls-2" d="M32.56,208.06l-7.72,10.89c-.3.42-.21,1.01.18,1.32.16.13.35.19.53.19.27,0,.54-.13.72-.38l7.72-10.89c.3-.42.21-1.01-.18-1.32-.4-.31-.96-.22-1.26.19Z"/><path class="cls-2" d="M13.04,111.18l9.43.16h.01c.42,0,.77-.36.78-.8,0-.45-.34-.82-.77-.83l-9.43-.16h-.01c-.28,0-.52.17-.66.41v.82c.13.24.37.4.65.41Z"/><path class="cls-2" d="M13.08,124.84s.07,0,.1,0l9.38-1.22c.44-.06.75-.47.69-.93-.05-.46-.45-.78-.89-.72l-9.38,1.22c-.26.03-.47.21-.59.43v.81c.14.25.4.42.68.42Z"/><path class="cls-2" d="M13.1,138.5c.07,0,.14,0,.21-.03l9.33-2.6c.43-.12.69-.59.58-1.04-.11-.45-.56-.72-.99-.6l-9.33,2.6c-.22.06-.4.22-.5.41v.8c.14.28.41.45.71.45Z"/><path class="cls-2" d="M13.13,152.16c.1,0,.21-.02.31-.06l9.29-3.98c.42-.18.63-.69.45-1.13-.17-.44-.66-.65-1.08-.47l-9.29,3.98c-.19.08-.33.24-.42.42v.77c.14.3.43.48.73.48Z"/><path class="cls-2" d="M13.15,165.82c.14,0,.28-.04.41-.11l9.24-5.36c.41-.24.55-.77.33-1.2-.23-.43-.74-.58-1.15-.34l-9.24,5.36c-.16.1-.27.25-.35.41v.73s0,.04.02.06c.15.29.44.46.74.46Z"/><path class="cls-2" d="M13.18,179.48c.17,0,.34-.05.49-.16l9.19-6.74c.39-.28.48-.85.21-1.25-.27-.41-.81-.51-1.2-.22l-9.19,6.74c-.14.1-.22.24-.29.4v.68c.02.06.04.12.07.18.17.25.43.38.7.38Z"/><path class="cls-2" d="M13.2,193.14c.2,0,.4-.07.56-.22l9.15-8.12c.37-.33.41-.9.1-1.29-.31-.39-.86-.43-1.23-.11l-9.15,8.12c-.11.1-.18.23-.24.36v.68c.03.09.07.18.13.25.17.21.42.32.67.32Z"/><path class="cls-2" d="M13.22,206.8c.23,0,.45-.09.63-.27l9.1-9.5c.35-.36.35-.95,0-1.32-.35-.36-.91-.37-1.26,0l-9.1,9.5c-.09.09-.15.2-.2.31v.7c.04.11.11.22.19.31.17.18.4.27.63.27Z"/><path class="cls-2" d="M13.93,220.13l9.05-10.88c.33-.4.29-.99-.09-1.34-.38-.34-.95-.3-1.28.09l-9.05,10.88c-.05.06-.08.14-.12.21.05.42.13.81.29,1.18.16.11.33.18.51.18.25,0,.5-.11.68-.33Z"/><path class="cls-2" d="M99.61,98.37c.12.16.34.2.49.07s.19-.35.07-.52l-1.25-1.75c-.07-.1-.18-.15-.28-.15-.07,0-.15.02-.21.07-.16.12-.19.35-.07.52l1.25,1.75Z"/><path class="cls-2" d="M98.35,82.9l1.04,3.06c.08.23.32.35.54.27.22-.08.34-.34.26-.57l-1.04-3.06c-.06-.18-.23-.3-.4-.3-.05,0-.09,0-.14.03-.22.08-.34.34-.26.57Z"/><path class="cls-2" d="M99.19,73.59c.05.28.31.46.58.41.27-.06.44-.33.39-.61l-.83-4.38c-.05-.25-.25-.42-.49-.42-.03,0-.06,0-.1,0-.27.06-.44.33-.39.61l.83,4.38Z"/><path class="cls-2" d="M99.01,61.22c.03.33.32.56.63.52.31-.04.53-.33.5-.66l-.61-5.69c-.03-.3-.28-.53-.56-.53-.02,0-.04,0-.06,0-.31.04-.53.33-.5.66l.61,5.69Z"/><path class="cls-2" d="M98.83,48.87c.02.37.32.65.67.63.35-.02.62-.34.6-.71l-.4-7.01c-.02-.35-.3-.63-.64-.63-.01,0-.03,0-.04,0-.35.02-.62.34-.6.71l.4,7.01Z"/><path class="cls-2" d="M98.65,36.51c0,.41.34.72.72.72.39,0,.7-.35.69-.76l-.18-8.32c0-.4-.32-.73-.71-.73,0,0-.01,0-.02,0-.39,0-.7.35-.69.76l.18,8.32Z"/><path class="cls-2" d="M99.25,24.98h0c.43,0,.78-.36.78-.81l.03-9.63c0-.45-.35-.82-.78-.82h0c-.43,0-.78.36-.78.81l-.03,9.63c0,.45.35.82.78.82Z"/><path class="cls-2" d="M99.12,12.73s.01,0,.02,0c.46,0,.84-.39.85-.87l.25-10.95c.01-.49-.36-.9-.83-.91,0,0-.01,0-.02,0-.46,0-.84.39-.85.87l-.25,10.95c-.01.49.36.9.83.91Z"/><path class="cls-2" d="M88.6,98.43c.19.13.45.08.58-.12.13-.2.07-.47-.12-.6l-2.42-1.68c-.07-.05-.15-.07-.23-.07-.13,0-.27.07-.35.2-.13.2-.07.47.12.6l2.42,1.68Z"/><path class="cls-2" d="M88.36,86.06c.16.22.46.26.67.09.21-.17.25-.49.08-.7l-2.22-3c-.09-.13-.24-.19-.38-.19-.1,0-.21.03-.29.11-.21.17-.25.49-.08.7l2.22,3Z"/><path class="cls-2" d="M88.15,73.68c.13.28.46.4.73.26.27-.14.38-.48.25-.76l-2.03-4.32c-.09-.2-.29-.32-.49-.32-.08,0-.16.02-.24.06-.27.14-.38.48-.25.76l2.03,4.32Z"/><path class="cls-2" d="M87.97,61.31c.11.33.45.51.77.39.32-.11.49-.47.38-.81l-1.84-5.64c-.09-.26-.32-.43-.57-.43-.06,0-.13.01-.2.03-.32.11-.49.47-.38.81l1.84,5.64Z"/><path class="cls-2" d="M87.8,48.96c.09.38.45.6.81.51.36-.09.58-.47.49-.85l-1.65-6.97c-.08-.32-.35-.53-.65-.53-.05,0-.11,0-.16.02-.36.09-.58.47-.49.85l1.65,6.97Z"/><path class="cls-2" d="M88.49,37.22c.4-.08.66-.48.59-.89l-1.46-8.29c-.07-.37-.37-.63-.72-.63-.04,0-.09,0-.13.01-.4.08-.66.48-.59.89l1.46,8.29c.07.42.45.69.85.61Z"/><path class="cls-2" d="M88.37,24.97c.43-.06.74-.48.68-.94l-1.27-9.61c-.06-.42-.4-.72-.79-.72-.04,0-.07,0-.11,0-.43.06-.74.48-.68.94l1.27,9.61c.06.46.46.78.9.71Z"/><path class="cls-2" d="M74.01,96.85l3.58,1.6c.24.11.52,0,.63-.26.1-.26,0-.55-.25-.66l-3.58-1.6c-.06-.03-.13-.04-.19-.04-.19,0-.36.11-.44.3-.1.26,0,.55.25.66Z"/><path class="cls-2" d="M77.35,86.11c.23.2.56.16.75-.08.19-.24.15-.59-.07-.79l-3.41-2.93c-.1-.09-.22-.13-.34-.13-.15,0-.31.07-.41.2-.19.24-.15.59.07.79l3.41,2.93Z"/><path class="cls-2" d="M77.14,73.76c.2.27.57.31.83.1.25-.21.3-.6.09-.87l-3.24-4.26c-.12-.15-.29-.23-.46-.23-.13,0-.26.04-.37.13-.25.21-.3.6-.09.87l3.24,4.26Z"/><path class="cls-2" d="M76.96,61.4c.18.32.57.43.88.25.31-.19.41-.6.24-.92l-3.08-5.6c-.12-.22-.34-.34-.56-.34-.11,0-.22.03-.32.09-.31.19-.41.6-.24.92l3.08,5.6Z"/><path class="cls-2" d="M76.8,49.04c.16.37.57.54.92.38.35-.16.51-.6.36-.97l-2.91-6.93c-.12-.27-.37-.44-.64-.44-.09,0-.19.02-.28.06-.35.16-.51.6-.36.97l2.91,6.93Z"/><path class="cls-2" d="M76.64,36.7c.14.41.57.63.96.49.39-.14.6-.59.47-1.01l-2.74-8.26c-.11-.33-.4-.53-.71-.53-.08,0-.17.01-.25.04-.39.14-.6.59-.47,1.01l2.74,8.26Z"/><path class="cls-2" d="M77.49,24.95c.43-.13.68-.6.56-1.05l-1.27-4.65c-.13-.49-.67-.73-1.13-.51h0c-.35.17-.52.56-.42.93l1.26,4.69c.12.45.57.71,1,.59Z"/><path class="cls-2" d="M61.81,96.94l4.74,1.52c.29.09.59-.08.68-.38.09-.3-.07-.62-.36-.71l-4.74-1.52c-.05-.02-.11-.02-.16-.02-.23,0-.45.16-.52.4-.09.3.07.62.36.71Z"/><path class="cls-2" d="M61.74,83.28l4.59,2.87c.28.17.64.08.81-.21.17-.29.07-.67-.21-.85l-4.59-2.87c-.09-.06-.2-.09-.3-.09-.2,0-.4.11-.51.3-.17.29-.07.67.21.85Z"/><path class="cls-2" d="M66.14,73.81c.26.25.66.23.9-.05.24-.27.21-.7-.05-.94l-4.45-4.21c-.12-.12-.27-.17-.43-.17-.17,0-.35.07-.47.22-.24.27-.21.7.05.94l4.45,4.21Z"/><path class="cls-2" d="M65.96,61.47c.24.31.67.35.96.1.29-.25.34-.7.1-1.01l-4.31-5.55c-.14-.17-.33-.26-.53-.26-.15,0-.3.05-.43.16-.29.25-.34.7-.1,1.01l4.31,5.55Z"/><path class="cls-2" d="M65.8,49.12c.22.36.67.46,1.01.24.34-.23.44-.7.23-1.06l-4.17-6.89c-.14-.23-.38-.36-.62-.36-.13,0-.27.04-.39.12-.34.23-.44.7-.23,1.06l4.17,6.89Z"/><path class="cls-2" d="M66.71,37.14c.38-.21.53-.7.34-1.1l-2.76-5.59c-.2-.41-.71-.55-1.1-.31h0c-.33.21-.46.64-.28.99l2.76,5.65c.2.4.67.56,1.05.35Z"/><path class="cls-2" d="M49.61,97.01l5.9,1.45c.32.08.65-.13.73-.47.08-.34-.13-.68-.45-.76l-5.9-1.45s-.09-.02-.14-.02c-.27,0-.52.2-.59.49-.08.34.13.68.45.76Z"/><path class="cls-2" d="M49.54,83.36l5.78,2.8c.32.16.71,0,.86-.33.15-.34,0-.74-.31-.9l-5.78-2.8c-.09-.04-.18-.06-.27-.06-.24,0-.48.15-.59.39-.15.34,0,.74.31.9Z"/><path class="cls-2" d="M55.14,73.84c.31.23.74.15.95-.18.22-.32.14-.77-.17-1l-5.66-4.15c-.12-.09-.26-.13-.39-.13-.22,0-.43.11-.56.31-.22.32-.14.77.17,1l5.66,4.15Z"/><path class="cls-2" d="M54.97,61.52c.29.29.75.28,1.02-.03.28-.3.26-.78-.03-1.07l-5.54-5.5c-.14-.14-.32-.21-.5-.21-.19,0-.38.08-.53.24-.28.3-.26.78.03,1.07l5.54,5.5Z"/><path class="cls-2" d="M55.9,49.29c.32-.28.37-.79.1-1.13l-4.79-6.05c-.28-.35-.8-.4-1.14-.09h0c-.3.28-.34.74-.08,1.05l4.83,6.11c.27.34.75.39,1.08.11Z"/><path class="cls-2" d="M37.4,97.08l7.06,1.37c.36.07.71-.18.78-.56.07-.38-.17-.75-.54-.82l-7.06-1.37s-.08-.01-.12-.01c-.32,0-.6.24-.66.57-.07.38.17.75.54.82Z"/><path class="cls-2" d="M37.33,83.44l6.96,2.73c.36.14.77-.05.9-.43.14-.38-.05-.8-.41-.94l-6.96-2.73c-.08-.03-.16-.05-.25-.05-.28,0-.55.18-.66.48-.14.38.05.8.41.94Z"/><path class="cls-2" d="M37.26,69.77l6.87,4.09c.35.21.8.08,1-.29.2-.37.08-.84-.27-1.05l-6.87-4.09c-.11-.07-.24-.1-.36-.1-.25,0-.5.14-.64.39-.2.37-.08.84.27,1.05Z"/><path class="cls-2" d="M43.98,61.55c.33.27.81.2,1.07-.15.26-.35.19-.85-.14-1.12l-6.78-5.45c-.14-.11-.3-.17-.46-.17-.23,0-.46.11-.61.31-.26.35-.19.85.14,1.12l6.78,5.45Z"/><path class="cls-2" d="M25.19,97.15l8.22,1.3c.4.06.77-.23.83-.64.06-.42-.22-.81-.61-.87l-8.22-1.3s-.07,0-.11,0c-.36,0-.67.27-.72.65-.06.42.22.81.61.87Z"/><path class="cls-2" d="M25.11,83.51l8.15,2.67c.4.13.82-.1.95-.52.12-.42-.1-.86-.5-.99l-8.15-2.67c-.07-.02-.15-.04-.23-.04-.32,0-.62.22-.72.56-.12.42.1.86.5.99Z"/><path class="cls-2" d="M25.04,69.84l8.08,4.04c.39.19.85.02,1.04-.39.19-.41.02-.89-.37-1.09l-8.08-4.04c-.11-.05-.22-.08-.33-.08-.29,0-.57.17-.7.47-.19.41-.02.89.37,1.09Z"/><path class="cls-2" d="M22.56,96.79l-9.38-1.22s-.07,0-.1,0c-.4,0-.74.31-.79.73-.05.46.26.87.69.93l9.38,1.22c.43.05.83-.27.89-.72.05-.46-.26-.87-.69-.93Z"/><path class="cls-2" d="M23.22,85.57c.12-.45-.14-.92-.58-1.04l-9.33-2.6c-.07-.02-.14-.03-.21-.03-.36,0-.69.25-.78.63-.12.45.14.92.58,1.04l9.33,2.6c.43.12.88-.15.99-.6Z"/><path class="cls-2" d="M11.49,96.64l-10.54-1.14s-.06,0-.09,0c-.43,0-.81.34-.85.81-.05.49.29.94.77.99l10.54,1.14c.47.05.89-.31.94-.8.05-.49-.29-.94-.77-.99Z"/><path class="cls-2" d="M13.23,85.49c.11-.49-.18-.98-.65-1.09l-6.3-1.52c-.31-.07-.64.01-.87.23h0c-.56.51-.33,1.43.4,1.63l5.38,1.43c.47.11,1.93-.19,2.04-.68Z"/><path class="cls-2" d="M110.24,98.37l1.25-1.75c.12-.16.09-.39-.07-.52-.06-.05-.14-.07-.21-.07-.11,0-.21.05-.28.15l-1.25,1.75c-.12.16-.09.39.07.52.16.12.38.09.49-.07Z"/><path class="cls-2" d="M109.92,86.23c.22.08.46-.04.54-.27l1.04-3.06c.08-.23-.04-.48-.26-.57-.05-.02-.09-.03-.14-.03-.17,0-.34.11-.4.3l-1.04,3.06c-.08.23.04.48.26.57Z"/><path class="cls-2" d="M110.07,73.99c.27.06.53-.13.58-.41l.83-4.38c.05-.28-.12-.55-.39-.61-.03,0-.06,0-.1,0-.23,0-.44.17-.48.42l-.83,4.38c-.05.28.12.55.39.61Z"/><path class="cls-2" d="M110.21,61.74c.31.04.59-.2.63-.52l.61-5.69c.03-.33-.19-.62-.5-.66-.02,0-.04,0-.06,0-.28,0-.53.22-.56.53l-.61,5.69c-.03.33.19.62.5.66Z"/><path class="cls-2" d="M110.34,49.49c.35.02.65-.26.67-.63l.4-7.01c.02-.37-.25-.68-.6-.71-.01,0-.03,0-.04,0-.33,0-.62.27-.64.63l-.4,7.01c-.02.37.25.68.6.71Z"/><path class="cls-2" d="M110.47,37.24c.39,0,.72-.32.72-.72l.18-8.32c0-.41-.3-.75-.69-.76,0,0-.01,0-.02,0-.38,0-.7.32-.71.73l-.18,8.32c0,.41.3.75.69.76Z"/><path class="cls-2" d="M110.6,24.98h0c.43,0,.78-.37.78-.82l-.03-9.63c0-.45-.35-.81-.78-.81h0c-.43,0-.78.37-.78.82l.03,9.63c0,.45.35.81.78.81Z"/><path class="cls-2" d="M110.7,12.73s.01,0,.02,0c.47-.01.84-.42.83-.91l-.25-10.95c-.01-.48-.39-.87-.85-.87,0,0-.01,0-.02,0-.47.01-.84.42-.83.91l.25,10.95c.01.48.39.87.85.87Z"/><path class="cls-2" d="M121.24,98.43l2.42-1.68c.19-.13.24-.4.12-.6-.08-.13-.21-.2-.35-.2-.08,0-.16.02-.23.07l-2.42,1.68c-.19.13-.24.4-.12.6.13.2.38.26.58.12Z"/><path class="cls-2" d="M121.49,86.06l2.22-3c.16-.22.12-.53-.08-.7-.09-.07-.19-.11-.29-.11-.14,0-.28.07-.38.19l-2.22,3c-.16.22-.12.53.08.7.21.17.51.13.67-.09Z"/><path class="cls-2" d="M120.97,73.94c.27.14.59.02.73-.26l2.03-4.32c.13-.28.02-.62-.25-.76-.08-.04-.16-.06-.24-.06-.2,0-.39.12-.49.32l-2.03,4.32c-.13.28-.02.62.25.76Z"/><path class="cls-2" d="M121.1,61.71c.32.11.66-.06.77-.39l1.84-5.64c.11-.33-.06-.69-.38-.81-.06-.02-.13-.03-.2-.03-.25,0-.49.17-.57.43l-1.84,5.64c-.11.33.06.69.38.81Z"/><path class="cls-2" d="M121.23,49.47c.36.09.72-.14.81-.51l1.65-6.97c.09-.38-.13-.76-.49-.85-.05-.01-.11-.02-.16-.02-.3,0-.57.21-.65.53l-1.65,6.97c-.09.38.13.76.49.85Z"/><path class="cls-2" d="M121.36,37.22c.4.08.78-.2.85-.61l1.46-8.29c.07-.42-.19-.82-.59-.89-.04,0-.09-.01-.13-.01-.35,0-.65.26-.72.63l-1.46,8.29c-.07.42.19.82.59.89Z"/><path class="cls-2" d="M121.48,24.97c.43.06.84-.26.9-.71l1.27-9.61c.06-.46-.24-.88-.68-.94-.04,0-.07,0-.11,0-.39,0-.73.3-.79.72l-1.27,9.61c-.06.46.24.88.68.94Z"/><path class="cls-2" d="M132.26,98.45l3.58-1.6c.24-.11.36-.4.25-.66-.08-.19-.25-.3-.44-.3-.06,0-.13.01-.19.04l-3.58,1.6c-.24.11-.36.4-.25.66.1.25.39.37.63.26Z"/><path class="cls-2" d="M132.5,86.11l3.41-2.93c.23-.2.26-.55.07-.79-.11-.14-.26-.2-.41-.2-.12,0-.24.04-.34.13l-3.41,2.93c-.23.2-.26.55-.07.79.19.24.52.27.75.08Z"/><path class="cls-2" d="M132.7,73.76l3.24-4.26c.2-.27.16-.66-.09-.87-.11-.09-.24-.13-.37-.13-.17,0-.35.08-.46.23l-3.24,4.26c-.2.27-.16.66.09.87.26.21.63.17.83-.1Z"/><path class="cls-2" d="M132,61.65c.31.19.7.08.88-.25l3.08-5.6c.18-.32.07-.74-.24-.92-.1-.06-.21-.09-.32-.09-.22,0-.44.12-.56.34l-3.08,5.6c-.18.32-.07.74.24.92Z"/><path class="cls-2" d="M132.13,49.42c.35.16.77,0,.92-.38l2.91-6.93c.16-.37,0-.8-.36-.97-.09-.04-.19-.06-.28-.06-.27,0-.53.16-.64.44l-2.91,6.93c-.16.37,0,.8.36.97Z"/><path class="cls-2" d="M132.24,37.19c.39.14.82-.07.96-.49l2.74-8.26c.14-.41-.07-.86-.47-1.01-.08-.03-.17-.04-.25-.04-.31,0-.61.21-.71.53l-2.74,8.26c-.14.41.07.86.47,1.01Z"/><path class="cls-2" d="M132.36,24.95c.43.13.88-.14,1-.59l1.48-5.5c.1-.38-.09-.78-.45-.94h0c-.44-.19-.95.05-1.08.52l-1.5,5.46c-.12.45.13.92.56,1.05Z"/><path class="cls-2" d="M143.3,98.46l4.74-1.52c.29-.09.45-.41.36-.71-.07-.24-.29-.4-.52-.4-.05,0-.11,0-.16.02l-4.74,1.52c-.29.09-.45.41-.36.71.09.3.39.47.68.38Z"/><path class="cls-2" d="M143.51,86.15l4.59-2.87c.28-.17.37-.55.21-.85-.11-.19-.31-.3-.51-.3-.1,0-.21.03-.3.09l-4.59,2.87c-.28.17-.37.55-.21.85.17.29.53.39.81.21Z"/><path class="cls-2" d="M143.71,73.81l4.45-4.21c.26-.25.28-.67.05-.94-.13-.15-.3-.22-.47-.22-.15,0-.3.06-.43.17l-4.45,4.21c-.26.25-.28.67-.05.94.24.27.64.3.9.05Z"/><path class="cls-2" d="M143.88,61.47l4.31-5.55c.24-.31.19-.76-.1-1.01-.13-.11-.28-.16-.43-.16-.2,0-.4.09-.53.26l-4.31,5.55c-.24.31-.19.76.1,1.01.29.25.72.2.96-.1Z"/><path class="cls-2" d="M144.04,49.12l4.17-6.89c.22-.36.11-.83-.23-1.06-.12-.08-.26-.12-.39-.12-.24,0-.48.13-.62.36l-4.17,6.89c-.22.36-.11.83.23,1.06.34.23.79.12,1.01-.24Z"/><path class="cls-2" d="M143.14,37.14c.38.21.85.05,1.05-.35l3.1-6.34c.18-.36.04-.81-.32-1h0c-.38-.21-.86-.06-1.05.33l-3.12,6.27c-.2.4-.04.89.34,1.1Z"/><path class="cls-2" d="M154.34,98.46l5.9-1.45c.33-.08.53-.42.45-.76-.07-.29-.31-.49-.59-.49-.05,0-.09,0-.14.02l-5.9,1.45c-.33.08-.53.42-.45.76.08.34.4.55.73.47Z"/><path class="cls-2" d="M154.53,86.16l5.78-2.8c.32-.16.46-.56.31-.9-.11-.25-.34-.39-.59-.39-.09,0-.18.02-.27.06l-5.78,2.8c-.32.16-.46.56-.31.9.15.34.53.49.86.33Z"/><path class="cls-2" d="M154.71,73.84l5.66-4.15c.31-.23.39-.67.17-1-.13-.2-.35-.31-.56-.31-.14,0-.27.04-.39.13l-5.66,4.15c-.31.23-.39.67-.17,1,.22.32.64.4.95.18Z"/><path class="cls-2" d="M154.87,61.52l5.54-5.5c.29-.29.3-.77.03-1.07-.14-.16-.33-.24-.53-.24-.18,0-.36.07-.5.21l-5.54,5.5c-.29.29-.3.77-.03,1.07.27.3.73.32,1.02.03Z"/><path class="cls-2" d="M153.85,48.16c-.27.34-.22.84.1,1.13.32.28.81.24,1.08-.11l5.42-6.85c.13-.17.18-.37.17-.57l-.8-.73c-.21.01-.41.1-.55.28l-5.42,6.85Z"/><path class="cls-2" d="M165.38,98.45l7.06-1.37c.36-.07.6-.44.54-.82-.06-.34-.34-.57-.66-.57-.04,0-.08,0-.12.01l-7.06,1.37c-.36.07-.6.44-.54.82.07.38.42.63.78.56Z"/><path class="cls-2" d="M165.55,86.17l6.96-2.73c.36-.14.55-.56.41-.94-.11-.29-.37-.48-.66-.48-.08,0-.16.02-.25.05l-6.96,2.73c-.36.14-.55.56-.41.94.14.38.54.57.9.43Z"/><path class="cls-2" d="M165.72,73.87l6.87-4.09c.35-.21.47-.68.27-1.05-.13-.25-.38-.39-.64-.39-.12,0-.25.03-.36.1l-6.87,4.09c-.35.21-.47.68-.27,1.05.2.37.65.5,1,.29Z"/><path class="cls-2" d="M165.87,61.55l6.78-5.45c.33-.27.4-.77.14-1.12-.15-.2-.38-.31-.61-.31-.16,0-.33.05-.46.17l-6.78,5.45c-.33.27-.4.77-.14,1.12.26.35.74.42,1.07.15Z"/><path class="cls-2" d="M176.43,98.45l8.22-1.3c.4-.06.68-.45.61-.87-.05-.38-.37-.65-.72-.65-.04,0-.07,0-.11,0l-8.22,1.3c-.4.06-.68.45-.61.87.06.42.43.71.83.64Z"/><path class="cls-2" d="M176.58,86.17l8.15-2.67c.4-.13.62-.57.5-.99-.1-.34-.4-.56-.72-.56-.07,0-.15.01-.23.04l-8.15,2.67c-.4.13-.62.57-.5.99.12.42.55.65.95.52Z"/><path class="cls-2" d="M176.73,73.88l8.08-4.04c.39-.19.55-.68.37-1.09-.13-.29-.41-.47-.7-.47-.11,0-.23.03-.33.08l-8.08,4.04c-.39.19-.55.68-.37,1.09.19.41.65.58,1.04.39Z"/><path class="cls-2" d="M187.48,98.44l9.38-1.22c.44-.06.75-.47.69-.93-.05-.42-.39-.73-.79-.73-.03,0-.07,0-.1,0l-9.38,1.22c-.44.06-.75.47-.69.93.05.46.45.78.89.72Z"/><path class="cls-2" d="M187.61,86.17l9.33-2.6c.43-.12.69-.59.58-1.04-.1-.38-.42-.63-.78-.63-.07,0-.14,0-.21.03l-9.33,2.6c-.43.12-.69.59-.58,1.04.11.45.56.72.99.6Z"/><path class="cls-2" d="M208.99,95.49s-.06,0-.09,0l-10.54,1.14c-.47.05-.81.49-.77.99.05.49.47.85.94.8l10.54-1.14c.47-.05.81-.49.77-.99-.05-.46-.42-.81-.85-.81Z"/><path class="cls-2" d="M197.61,85.49c.11.49.57.8,1.04.68l6.45-1.55c.7-.17.93-1.06.4-1.55h0c-.22-.2-.53-.28-.82-.21l-6.41,1.54c-.47.11-.76.6-.65,1.09Z"/></g></svg>